<svg xmlns="http://www.w3.org/2000/svg" width="180" height="40" fill="none" viewBox="0 0 180 40">
  <path fill="#000" d="M60.968 29 56.24 12.2h3.192l3.36 11.928L66.536 12.2h2.136l3.888 11.616L75.776 12.2h3.192L74.048 29h-2.712l-3.744-11.208L63.872 29h-2.904Zm21.258.24a3.68 3.68 0 0 1-1.752-.42 3.224 3.224 0 0 1-1.26-1.236c-.312-.536-.468-1.184-.468-1.944 0-.68.156-1.26.468-1.74.32-.488.736-.892 1.248-1.212a6.957 6.957 0 0 1 1.68-.768 11.756 11.756 0 0 1 1.788-.42c.592-.088 1.112-.14 1.56-.156-.032-.688-.208-1.188-.528-1.5-.32-.312-.864-.468-1.632-.468-.536 0-1.06.076-1.572.228-.504.144-1.076.372-1.716.684l-.264-2.424c.72-.352 1.44-.616 2.16-.792a9.364 9.364 0 0 1 2.208-.264c.896 0 1.668.16 2.316.48.648.32 1.148.836 1.5 1.548.352.704.528 1.636.528 2.796v3.24c0 .6.028 1.036.084 1.308.056.264.16.432.312.504.152.072.372.108.66.108h.384l-.264 2.448h-1.08a3.71 3.71 0 0 1-1.2-.18 2.633 2.633 0 0 1-.888-.48 2.513 2.513 0 0 1-.6-.732c-.392.44-.924.784-1.596 1.032a6.06 6.06 0 0 1-2.076.36Zm1.248-2.28c.264 0 .592-.068.984-.204a3.05 3.05 0 0 0 1.056-.66V23.36c-.56.024-1.12.116-1.68.276-.56.16-1.028.396-1.404.708-.376.312-.564.704-.564 1.176 0 .488.128.852.384 1.092.256.232.664.348 1.224.348Zm11.521 2.28a9.313 9.313 0 0 1-2.148-.228 10.81 10.81 0 0 1-1.908-.66l.264-2.544c.616.36 1.22.652 1.812.876a5.52 5.52 0 0 0 1.884.324c.592 0 1.044-.096 1.356-.288.312-.192.468-.496.468-.912 0-.312-.084-.568-.252-.768-.16-.2-.404-.38-.732-.54-.328-.16-.736-.332-1.224-.516a10.654 10.654 0 0 1-1.884-.888c-.512-.32-.904-.704-1.176-1.152-.264-.456-.396-1.016-.396-1.68 0-.688.18-1.296.54-1.824.36-.528.872-.94 1.536-1.236.664-.296 1.452-.444 2.364-.444.76 0 1.44.084 2.04.252a7.469 7.469 0 0 1 1.68.684l-.264 2.544a9.513 9.513 0 0 0-1.62-.924 4.26 4.26 0 0 0-1.788-.372c-.512 0-.908.104-1.188.312-.28.208-.42.504-.42.888 0 .464.196.812.588 1.044.392.232 1.02.516 1.884.852.56.216 1.044.44 1.452.672.416.232.76.488 1.032.768s.472.6.6.96c.136.352.204.76.204 1.224 0 .76-.184 1.408-.552 1.944-.36.528-.892.932-1.596 1.212-.696.28-1.548.42-2.556.42Zm6.717-.24V11h2.976v7.752l-.672-.528a13.088 13.088 0 0 1 1.644-.972c.592-.296 1.3-.444 2.124-.444 1.056 0 1.916.236 2.58.708.664.464 1.152 1.112 1.464 1.944.312.824.468 1.78.468 2.868V29h-2.976v-6.456c0-1.12-.18-1.948-.54-2.484-.36-.536-.948-.804-1.764-.804-.696 0-1.268.164-1.716.492-.44.32-.828.756-1.164 1.308l.552-1.608V29h-2.976Zm18.219.336c-.68 0-1.38-.068-2.1-.204a18.052 18.052 0 0 1-2.004-.468c-.616-.192-1.104-.376-1.464-.552l.36-3.264c.56.272 1.144.524 1.752.756.608.232 1.232.42 1.872.564.64.144 1.288.216 1.944.216.816 0 1.472-.16 1.968-.48.496-.32.744-.808.744-1.464 0-.504-.14-.908-.42-1.212-.28-.312-.708-.588-1.284-.828a34.122 34.122 0 0 0-2.208-.84c-.896-.312-1.7-.664-2.412-1.056-.712-.4-1.276-.904-1.692-1.512-.416-.608-.624-1.384-.624-2.328 0-.928.228-1.752.684-2.472.456-.728 1.136-1.296 2.04-1.704.912-.416 2.044-.624 3.396-.624 1.024 0 2 .116 2.928.348.928.224 1.72.468 2.376.732l-.312 3.144a16.94 16.94 0 0 0-2.664-.96 9.564 9.564 0 0 0-2.52-.336c-.896 0-1.588.148-2.076.444-.488.296-.732.74-.732 1.332 0 .472.136.852.408 1.14.272.288.66.536 1.164.744.504.2 1.108.412 1.812.636 1.216.384 2.236.808 3.06 1.272.832.456 1.456 1.012 1.872 1.668.424.648.636 1.452.636 2.412 0 .48-.076 1.004-.228 1.572-.152.56-.452 1.092-.9 1.596s-1.104.92-1.968 1.248c-.856.32-1.992.48-3.408.48Zm12.225-.096c-.752 0-1.364-.152-1.836-.456a2.86 2.86 0 0 1-1.044-1.188 3.507 3.507 0 0 1-.336-1.5v-6.648h-1.704L127.5 17h1.44v-2.64l2.976-.312V17h2.64v2.448h-2.64v5.424c0 .608.036 1.048.108 1.32a.672.672 0 0 0 .492.504c.256.064.664.096 1.224.096h.816l-.264 2.448h-2.136Zm6.93 0a3.68 3.68 0 0 1-1.752-.42 3.224 3.224 0 0 1-1.26-1.236c-.312-.536-.468-1.184-.468-1.944 0-.68.156-1.26.468-1.74.32-.488.736-.892 1.248-1.212a6.957 6.957 0 0 1 1.68-.768 11.756 11.756 0 0 1 1.788-.42c.592-.088 1.112-.14 1.56-.156-.032-.688-.208-1.188-.528-1.5-.32-.312-.864-.468-1.632-.468-.536 0-1.06.076-1.572.228-.504.144-1.076.372-1.716.684l-.264-2.424c.72-.352 1.44-.616 2.16-.792a9.364 9.364 0 0 1 2.208-.264c.896 0 1.668.16 2.316.48.648.32 1.148.836 1.5 1.548.352.704.528 1.636.528 2.796v3.24c0 .6.028 1.036.084 1.308.056.264.16.432.312.504.152.072.372.108.66.108h.384l-.264 2.448h-1.08a3.71 3.71 0 0 1-1.2-.18 2.633 2.633 0 0 1-.888-.48 2.513 2.513 0 0 1-.6-.732c-.392.44-.924.784-1.596 1.032a6.06 6.06 0 0 1-2.076.36Zm1.248-2.28c.264 0 .592-.068.984-.204a3.05 3.05 0 0 0 1.056-.66V23.36c-.56.024-1.12.116-1.68.276-.56.16-1.028.396-1.404.708-.376.312-.564.704-.564 1.176 0 .488.128.852.384 1.092.256.232.664.348 1.224.348Zm13.681 2.28c-1.376 0-2.532-.28-3.468-.84a5.61 5.61 0 0 1-2.112-2.256c-.472-.944-.708-1.984-.708-3.12 0-1.144.236-2.188.708-3.132.472-.952 1.18-1.712 2.124-2.28.944-.568 2.128-.852 3.552-.852.672 0 1.28.076 1.824.228a5.946 5.946 0 0 1 1.392.54l-.24 2.4a6.336 6.336 0 0 0-1.248-.48 5.304 5.304 0 0 0-1.44-.192c-1.152 0-2.044.348-2.676 1.044-.632.696-.948 1.604-.948 2.724 0 1.064.324 1.96.972 2.688.648.72 1.524 1.08 2.628 1.08.472 0 .936-.068 1.392-.204.464-.144.912-.34 1.344-.588l.264 2.52c-.416.216-.92.388-1.512.516-.584.136-1.2.204-1.848.204Zm5.33-.24V11h2.976v10.92l3.72-4.92h3.36l-4.368 5.76 4.464 6.24h-3.36l-3.816-5.328V29h-2.976Zm15.08.24a9.313 9.313 0 0 1-2.148-.228 10.81 10.81 0 0 1-1.908-.66l.264-2.544c.616.36 1.22.652 1.812.876a5.52 5.52 0 0 0 1.884.324c.592 0 1.044-.096 1.356-.288.312-.192.468-.496.468-.912 0-.312-.084-.568-.252-.768-.16-.2-.404-.38-.732-.54-.328-.16-.736-.332-1.224-.516a10.654 10.654 0 0 1-1.884-.888c-.512-.32-.904-.704-1.176-1.152-.264-.456-.396-1.016-.396-1.68 0-.688.18-1.296.54-1.824.36-.528.872-.94 1.536-1.236.664-.296 1.452-.444 2.364-.444.76 0 1.44.084 2.04.252a7.469 7.469 0 0 1 1.68.684l-.264 2.544a9.513 9.513 0 0 0-1.62-.924 4.26 4.26 0 0 0-1.788-.372c-.512 0-.908.104-1.188.312-.28.208-.42.504-.42.888 0 .464.196.812.588 1.044.392.232 1.02.516 1.884.852.56.216 1.044.44 1.452.672.416.232.76.488 1.032.768s.472.6.6.96c.136.352.204.76.204 1.224 0 .76-.184 1.408-.552 1.944-.36.528-.892.932-1.596 1.212-.696.28-1.548.42-2.556.42ZM17.422 27.797l-6.003 9.126h22.082L49 13.361H32.702l-9.496 14.436h-5.784Z"/>
  <path fill="#000" d="M16.5 2.051h21.08L22.083 25.613H1L16.5 2.051Z"/>
</svg>
