<svg width="253" height="39" viewBox="0 0 253 39" fill="none" xmlns="http://www.w3.org/2000/svg">
<path d="M61.624 31L55.32 8.6H59.576L64.056 24.504L69.048 8.6H71.896L77.08 24.088L81.368 8.6H85.624L79.064 31H75.448L70.456 16.056L65.496 31H61.624ZM89.9683 31.32C89.1149 31.32 88.3363 31.1333 87.6323 30.76C86.9283 30.376 86.3683 29.8267 85.9523 29.112C85.5363 28.3973 85.3283 27.5333 85.3283 26.52C85.3283 25.6133 85.5363 24.84 85.9523 24.2C86.3789 23.5493 86.9336 23.0107 87.6163 22.584C88.3096 22.1467 89.0563 21.8053 89.8563 21.56C90.6669 21.304 91.4616 21.1173 92.2403 21C93.0296 20.8827 93.7229 20.8133 94.3203 20.792C94.2776 19.8747 94.0429 19.208 93.6163 18.792C93.1896 18.376 92.4643 18.168 91.4403 18.168C90.7256 18.168 90.0269 18.2693 89.3443 18.472C88.6723 18.664 87.9096 18.968 87.0563 19.384L86.7043 16.152C87.6643 15.6827 88.6243 15.3307 89.5843 15.096C90.5549 14.8613 91.5363 14.744 92.5283 14.744C93.7229 14.744 94.7523 14.9573 95.6163 15.384C96.4803 15.8107 97.1469 16.4987 97.6163 17.448C98.0856 18.3867 98.3203 19.6293 98.3203 21.176V25.496C98.3203 26.296 98.3576 26.8773 98.4323 27.24C98.5069 27.592 98.6456 27.816 98.8483 27.912C99.0509 28.008 99.3443 28.056 99.7283 28.056H100.24L99.8883 31.32H98.4483C97.8509 31.32 97.3176 31.24 96.8483 31.08C96.3896 30.9307 95.9949 30.7173 95.6643 30.44C95.3336 30.1627 95.0669 29.8373 94.8643 29.464C94.3416 30.0507 93.6323 30.5093 92.7362 30.84C91.8509 31.16 90.9283 31.32 89.9683 31.32ZM91.6323 28.28C91.9843 28.28 92.4216 28.1893 92.9443 28.008C93.4669 27.816 93.9363 27.5227 94.3523 27.128V23.48C93.6056 23.512 92.8589 23.6347 92.1123 23.848C91.3656 24.0613 90.7416 24.376 90.2403 24.792C89.7389 25.208 89.4883 25.7307 89.4883 26.36C89.4883 27.0107 89.6589 27.496 90.0003 27.816C90.3416 28.1253 90.8856 28.28 91.6323 28.28ZM106.994 31.32C105.938 31.32 104.983 31.2187 104.13 31.016C103.287 30.8133 102.439 30.52 101.586 30.136L101.938 26.744C102.759 27.224 103.564 27.6133 104.354 27.912C105.154 28.2 105.991 28.344 106.866 28.344C107.655 28.344 108.258 28.216 108.674 27.96C109.09 27.704 109.298 27.2987 109.298 26.744C109.298 26.328 109.186 25.9867 108.962 25.72C108.748 25.4533 108.423 25.2133 107.986 25C107.548 24.7867 107.004 24.5573 106.354 24.312C105.372 23.9493 104.535 23.5547 103.842 23.128C103.159 22.7013 102.636 22.1893 102.274 21.592C101.922 20.984 101.746 20.2373 101.746 19.352C101.746 18.4347 101.986 17.624 102.466 16.92C102.946 16.216 103.628 15.6667 104.514 15.272C105.399 14.8773 106.45 14.68 107.666 14.68C108.679 14.68 109.586 14.792 110.386 15.016C111.196 15.24 111.943 15.544 112.626 15.928L112.274 19.32C111.559 18.8187 110.839 18.408 110.114 18.088C109.388 17.7573 108.594 17.592 107.73 17.592C107.047 17.592 106.519 17.7307 106.146 18.008C105.772 18.2853 105.586 18.68 105.586 19.192C105.586 19.8107 105.847 20.2747 106.37 20.584C106.892 20.8933 107.73 21.272 108.882 21.72C109.628 22.008 110.274 22.3067 110.818 22.616C111.372 22.9253 111.831 23.2667 112.194 23.64C112.556 24.0133 112.823 24.44 112.994 24.92C113.175 25.3893 113.266 25.9333 113.266 26.552C113.266 27.5653 113.02 28.4293 112.53 29.144C112.05 29.848 111.34 30.3867 110.402 30.76C109.474 31.1333 108.338 31.32 106.994 31.32ZM115.949 31V7H119.917V17.336L119.021 16.632C119.693 16.1627 120.424 15.7307 121.213 15.336C122.002 14.9413 122.946 14.744 124.045 14.744C125.453 14.744 126.6 15.0587 127.485 15.688C128.37 16.3067 129.021 17.1707 129.437 18.28C129.853 19.3787 130.061 20.6533 130.061 22.104V31H126.093V22.392C126.093 20.8987 125.853 19.7947 125.373 19.08C124.893 18.3653 124.109 18.008 123.021 18.008C122.093 18.008 121.33 18.2267 120.733 18.664C120.146 19.0907 119.629 19.672 119.181 20.408L119.917 18.264V31H115.949ZM140.241 31.448C139.335 31.448 138.401 31.3573 137.441 31.176C136.481 31.0053 135.591 30.7973 134.769 30.552C133.948 30.296 133.297 30.0507 132.817 29.816L133.297 25.464C134.044 25.8267 134.823 26.1627 135.633 26.472C136.444 26.7813 137.276 27.032 138.129 27.224C138.983 27.416 139.847 27.512 140.721 27.512C141.809 27.512 142.684 27.2987 143.345 26.872C144.007 26.4453 144.337 25.7947 144.337 24.92C144.337 24.248 144.151 23.7093 143.777 23.304C143.404 22.888 142.833 22.52 142.065 22.2C141.297 21.8693 140.316 21.496 139.121 21.08C137.927 20.664 136.855 20.1947 135.905 19.672C134.956 19.1387 134.204 18.4667 133.649 17.656C133.095 16.8453 132.817 15.8107 132.817 14.552C132.817 13.3147 133.121 12.216 133.729 11.256C134.337 10.2853 135.244 9.528 136.449 8.984C137.665 8.42933 139.175 8.152 140.977 8.152C142.343 8.152 143.644 8.30667 144.881 8.616C146.119 8.91467 147.175 9.24 148.049 9.592L147.633 13.784C146.375 13.2187 145.191 12.792 144.081 12.504C142.983 12.2053 141.863 12.056 140.721 12.056C139.527 12.056 138.604 12.2533 137.953 12.648C137.303 13.0427 136.977 13.6347 136.977 14.424C136.977 15.0533 137.159 15.56 137.521 15.944C137.884 16.328 138.401 16.6587 139.073 16.936C139.745 17.2027 140.551 17.4853 141.489 17.784C143.111 18.296 144.471 18.8613 145.569 19.48C146.679 20.088 147.511 20.8293 148.065 21.704C148.631 22.568 148.913 23.64 148.913 24.92C148.913 25.56 148.812 26.2587 148.609 27.016C148.407 27.7627 148.007 28.472 147.409 29.144C146.812 29.816 145.937 30.3707 144.785 30.808C143.644 31.2347 142.129 31.448 140.241 31.448ZM156.541 31.32C155.538 31.32 154.722 31.1173 154.093 30.712C153.463 30.296 152.999 29.768 152.701 29.128C152.402 28.488 152.253 27.8213 152.253 27.128V18.264H149.981L150.333 15H152.253V11.48L156.221 11.064V15H159.741V18.264H156.221V25.496C156.221 26.3067 156.269 26.8933 156.365 27.256C156.461 27.608 156.679 27.832 157.021 27.928C157.362 28.0133 157.906 28.056 158.653 28.056H159.741L159.389 31.32H156.541ZM165.781 31.32C164.927 31.32 164.149 31.1333 163.445 30.76C162.741 30.376 162.181 29.8267 161.765 29.112C161.349 28.3973 161.141 27.5333 161.141 26.52C161.141 25.6133 161.349 24.84 161.765 24.2C162.191 23.5493 162.746 23.0107 163.429 22.584C164.122 22.1467 164.869 21.8053 165.669 21.56C166.479 21.304 167.274 21.1173 168.053 21C168.842 20.8827 169.535 20.8133 170.133 20.792C170.09 19.8747 169.855 19.208 169.429 18.792C169.002 18.376 168.277 18.168 167.253 18.168C166.538 18.168 165.839 18.2693 165.157 18.472C164.485 18.664 163.722 18.968 162.869 19.384L162.517 16.152C163.477 15.6827 164.437 15.3307 165.397 15.096C166.367 14.8613 167.349 14.744 168.341 14.744C169.535 14.744 170.565 14.9573 171.429 15.384C172.293 15.8107 172.959 16.4987 173.429 17.448C173.898 18.3867 174.133 19.6293 174.133 21.176V25.496C174.133 26.296 174.17 26.8773 174.245 27.24C174.319 27.592 174.458 27.816 174.661 27.912C174.863 28.008 175.157 28.056 175.541 28.056H176.053L175.701 31.32H174.261C173.663 31.32 173.13 31.24 172.661 31.08C172.202 30.9307 171.807 30.7173 171.477 30.44C171.146 30.1627 170.879 29.8373 170.677 29.464C170.154 30.0507 169.445 30.5093 168.549 30.84C167.663 31.16 166.741 31.32 165.781 31.32ZM167.445 28.28C167.797 28.28 168.234 28.1893 168.757 28.008C169.279 27.816 169.749 27.5227 170.165 27.128V23.48C169.418 23.512 168.671 23.6347 167.925 23.848C167.178 24.0613 166.554 24.376 166.053 24.792C165.551 25.208 165.301 25.7307 165.301 26.36C165.301 27.0107 165.471 27.496 165.813 27.816C166.154 28.1253 166.698 28.28 167.445 28.28ZM185.686 31.32C183.852 31.32 182.31 30.9467 181.062 30.2C179.825 29.4427 178.886 28.44 178.246 27.192C177.617 25.9333 177.302 24.5467 177.302 23.032C177.302 21.5067 177.617 20.1147 178.246 18.856C178.876 17.5867 179.82 16.5733 181.078 15.816C182.337 15.0587 183.916 14.68 185.814 14.68C186.71 14.68 187.521 14.7813 188.246 14.984C188.972 15.176 189.59 15.416 190.102 15.704L189.782 18.904C189.292 18.648 188.737 18.4347 188.118 18.264C187.51 18.0933 186.87 18.008 186.198 18.008C184.662 18.008 183.473 18.472 182.63 19.4C181.788 20.328 181.366 21.5387 181.366 23.032C181.366 24.4507 181.798 25.6453 182.662 26.616C183.526 27.576 184.694 28.056 186.166 28.056C186.796 28.056 187.414 27.9653 188.022 27.784C188.641 27.592 189.238 27.3307 189.814 27L190.166 30.36C189.612 30.648 188.94 30.8773 188.15 31.048C187.372 31.2293 186.55 31.32 185.686 31.32ZM192.793 31V7H196.761V21.56L201.721 15H206.201L200.377 22.68L206.329 31H201.849L196.761 23.896V31H192.793ZM212.9 31.32C211.844 31.32 210.889 31.2187 210.036 31.016C209.193 30.8133 208.345 30.52 207.492 30.136L207.844 26.744C208.665 27.224 209.471 27.6133 210.26 27.912C211.06 28.2 211.897 28.344 212.772 28.344C213.561 28.344 214.164 28.216 214.58 27.96C214.996 27.704 215.204 27.2987 215.204 26.744C215.204 26.328 215.092 25.9867 214.868 25.72C214.655 25.4533 214.329 25.2133 213.892 25C213.455 24.7867 212.911 24.5573 212.26 24.312C211.279 23.9493 210.441 23.5547 209.748 23.128C209.065 22.7013 208.543 22.1893 208.18 21.592C207.828 20.984 207.652 20.2373 207.652 19.352C207.652 18.4347 207.892 17.624 208.372 16.92C208.852 16.216 209.535 15.6667 210.42 15.272C211.305 14.8773 212.356 14.68 213.572 14.68C214.585 14.68 215.492 14.792 216.292 15.016C217.103 15.24 217.849 15.544 218.532 15.928L218.18 19.32C217.465 18.8187 216.745 18.408 216.02 18.088C215.295 17.7573 214.5 17.592 213.636 17.592C212.953 17.592 212.425 17.7307 212.052 18.008C211.679 18.2853 211.492 18.68 211.492 19.192C211.492 19.8107 211.753 20.2747 212.276 20.584C212.799 20.8933 213.636 21.272 214.788 21.72C215.535 22.008 216.18 22.3067 216.724 22.616C217.279 22.9253 217.737 23.2667 218.1 23.64C218.463 24.0133 218.729 24.44 218.9 24.92C219.081 25.3893 219.172 25.9333 219.172 26.552C219.172 27.5653 218.927 28.4293 218.436 29.144C217.956 29.848 217.247 30.3867 216.308 30.76C215.38 31.1333 214.244 31.32 212.9 31.32Z" fill="black"/>
<path d="M17.4224 27.102L11.4192 36H33.5008L49 13.0271H32.7024L23.2064 27.102H17.4224Z" fill="#2364AA"/>
<path d="M16.4992 2H37.5808L22.0816 24.9729H1L16.4992 2Z" fill="#EA7317"/>
</svg>
