<svg width="253" height="39" viewBox="0 0 253 39" fill="none" xmlns="http://www.w3.org/2000/svg">
<path d="M61.624 31L60.6614 31.2709L60.8666 32H61.624V31ZM55.32 8.6V7.6H53.9997L54.3574 8.8709L55.32 8.6ZM59.576 8.6L60.5385 8.32886L60.3332 7.6H59.576V8.6ZM64.056 24.504L63.0935 24.7751L64.0042 28.0082L65.0101 24.8035L64.056 24.504ZM69.048 8.6V7.6H68.3138L68.0939 8.30052L69.048 8.6ZM71.896 8.6L72.8443 8.2826L72.6158 7.6H71.896V8.6ZM77.08 24.088L76.1317 24.4054L77.1705 27.5089L78.0437 24.3548L77.08 24.088ZM81.368 8.6V7.6H80.6072L80.4043 8.33318L81.368 8.6ZM85.624 8.6L86.5837 8.88105L86.9589 7.6H85.624V8.6ZM79.064 31V32H79.8131L80.0237 31.2811L79.064 31ZM75.448 31L74.4995 31.3168L74.7277 32H75.448V31ZM70.456 16.056L71.4045 15.7392L70.4529 12.8907L69.5069 15.741L70.456 16.056ZM65.496 31V32H66.2177L66.4451 31.315L65.496 31ZM62.5866 30.7291L56.2826 8.32909L54.3574 8.8709L60.6614 31.2709L62.5866 30.7291ZM55.32 9.6H59.576V7.6H55.32V9.6ZM58.6135 8.87114L63.0935 24.7751L65.0185 24.2329L60.5385 8.32886L58.6135 8.87114ZM65.0101 24.8035L70.0021 8.89948L68.0939 8.30052L63.1019 24.2045L65.0101 24.8035ZM69.048 9.6H71.896V7.6H69.048V9.6ZM70.9477 8.9174L76.1317 24.4054L78.0283 23.7706L72.8443 8.2826L70.9477 8.9174ZM78.0437 24.3548L82.3317 8.86682L80.4043 8.33318L76.1163 23.8212L78.0437 24.3548ZM81.368 9.6H85.624V7.6H81.368V9.6ZM84.6643 8.31895L78.1043 30.7189L80.0237 31.2811L86.5837 8.88105L84.6643 8.31895ZM79.064 30H75.448V32H79.064V30ZM76.3965 30.6832L71.4045 15.7392L69.5075 16.3728L74.4995 31.3168L76.3965 30.6832ZM69.5069 15.741L64.5469 30.685L66.4451 31.315L71.4051 16.371L69.5069 15.741ZM65.496 30H61.624V32H65.496V30ZM87.6323 30.76L87.1534 31.638L87.1637 31.6435L87.6323 30.76ZM85.9523 29.112L85.088 29.6151L85.9523 29.112ZM85.9523 24.2L85.116 23.6516L85.1138 23.655L85.9523 24.2ZM87.6163 22.584L88.1463 23.432L88.1498 23.4298L87.6163 22.584ZM89.8563 21.56L90.1495 22.5161L90.1574 22.5136L89.8563 21.56ZM92.2403 21L92.0932 20.0109L92.0912 20.0112L92.2403 21ZM94.3203 20.792L94.3559 21.7914L95.3661 21.7553L95.3192 20.7455L94.3203 20.792ZM93.6163 18.792L92.9181 19.508L92.9182 19.508L93.6163 18.792ZM89.3443 18.472L89.619 19.4336L89.6288 19.4306L89.3443 18.472ZM87.0563 19.384L86.0621 19.4923L86.2161 20.9061L87.4945 20.2829L87.0563 19.384ZM86.7043 16.152L86.265 15.2536L85.6341 15.5621L85.7101 16.2603L86.7043 16.152ZM89.5843 15.096L89.3493 14.124L89.3468 14.1246L89.5843 15.096ZM95.6163 15.384L96.059 14.4874L96.059 14.4874L95.6163 15.384ZM97.6163 17.448L96.7198 17.8912L96.7218 17.8952L97.6163 17.448ZM98.4323 27.24L97.4528 27.4417L97.454 27.4475L98.4323 27.24ZM98.8483 27.912L98.4202 28.8157L98.4202 28.8157L98.8483 27.912ZM100.24 28.056L101.234 28.1632L101.354 27.056H100.24V28.056ZM99.8883 31.32V32.32H100.786L100.882 31.4272L99.8883 31.32ZM96.8483 31.08L97.171 30.1334L97.1578 30.1291L96.8483 31.08ZM95.6643 30.44L95.0216 31.2062L95.0216 31.2062L95.6643 30.44ZM94.8643 29.464L95.7431 28.9869L95.0642 27.7363L94.1176 28.7988L94.8643 29.464ZM92.7362 30.84L93.0762 31.7805L93.0825 31.7782L92.7362 30.84ZM92.9443 28.008L93.272 28.9528L93.2806 28.9498L93.2891 28.9467L92.9443 28.008ZM94.3523 27.128L95.0405 27.8535L95.3523 27.5577V27.128H94.3523ZM94.3523 23.48H95.3523V22.4362L94.3094 22.4809L94.3523 23.48ZM92.1123 23.848L91.8375 22.8865L91.8375 22.8865L92.1123 23.848ZM90.2403 24.792L89.6017 24.0224L89.6017 24.0224L90.2403 24.792ZM90.0003 27.816L89.3163 28.5455L89.3225 28.5513L89.3287 28.557L90.0003 27.816ZM89.9683 30.32C89.2664 30.32 88.6503 30.168 88.1008 29.8765L87.1637 31.6435C88.0222 32.0987 88.9635 32.32 89.9683 32.32V30.32ZM88.1111 29.8821C87.5725 29.5883 87.1437 29.171 86.8165 28.6089L85.088 29.6151C85.5928 30.4823 86.284 31.1637 87.1534 31.6379L88.1111 29.8821ZM86.8165 28.6089C86.5074 28.078 86.3283 27.3962 86.3283 26.52H84.3283C84.3283 27.6704 84.5651 28.7167 85.088 29.6151L86.8165 28.6089ZM86.3283 26.52C86.3283 25.7699 86.4986 25.1944 86.7907 24.745L85.1138 23.655C84.5739 24.4856 84.3283 25.4568 84.3283 26.52H86.3283ZM86.7885 24.7484C87.1332 24.2227 87.5818 23.7848 88.1462 23.432L87.0863 21.736C86.2854 22.2365 85.6247 22.8759 85.116 23.6516L86.7885 24.7484ZM88.1498 23.4298C88.7667 23.0407 89.4323 22.736 90.1494 22.5161L89.5631 20.6039C88.6802 20.8747 87.8525 21.2527 87.0827 21.7382L88.1498 23.4298ZM90.1574 22.5136C90.9222 22.2721 91.666 22.0978 92.3893 21.9888L92.0912 20.0112C91.2571 20.1369 90.4116 20.3359 89.5551 20.6064L90.1574 22.5136ZM92.3873 21.9891C93.1511 21.8756 93.8058 21.811 94.3559 21.7914L94.2846 19.7926C93.64 19.8157 92.9081 19.8897 92.0932 20.0109L92.3873 21.9891ZM95.3192 20.7455C95.2709 19.7076 94.9993 18.7438 94.3143 18.076L92.9182 19.508C93.0865 19.6722 93.2843 20.0418 93.3213 20.8385L95.3192 20.7455ZM94.3144 18.076C93.6053 17.3846 92.5509 17.168 91.4403 17.168V19.168C92.3776 19.168 92.7739 19.3674 92.9181 19.508L94.3144 18.076ZM91.4403 17.168C90.6296 17.168 89.835 17.2832 89.0597 17.5134L89.6288 19.4306C90.2188 19.2555 90.8216 19.168 91.4403 19.168V17.168ZM89.0695 17.5105C88.3254 17.7231 87.5067 18.0519 86.618 18.4851L87.4945 20.2829C88.3125 19.8841 89.0191 19.6049 89.619 19.4335L89.0695 17.5105ZM88.0504 19.2757L87.6984 16.0437L85.7101 16.2603L86.0621 19.4923L88.0504 19.2757ZM87.1435 17.0504C88.0442 16.61 88.9368 16.2837 89.8217 16.0674L89.3468 14.1246C88.3117 14.3776 87.2843 14.7553 86.265 15.2536L87.1435 17.0504ZM89.8192 16.068C90.7135 15.8518 91.6159 15.744 92.5283 15.744V13.744C91.4566 13.744 90.3964 13.8709 89.3493 14.124L89.8192 16.068ZM92.5283 15.744C93.6054 15.744 94.4762 15.9363 95.1735 16.2806L96.059 14.4874C95.0283 13.9784 93.8404 13.744 92.5283 13.744V15.744ZM95.1735 16.2806C95.8209 16.6003 96.3376 17.1181 96.7198 17.8912L98.5127 17.0048C97.9562 15.8793 97.1396 15.021 96.059 14.4874L95.1735 16.2806ZM96.7218 17.8952C97.0967 18.645 97.3203 19.7168 97.3203 21.176H99.3203C99.3203 19.5419 99.0745 18.1284 98.5107 17.0008L96.7218 17.8952ZM97.3203 21.176V25.496H99.3203V21.176H97.3203ZM97.3203 25.496C97.3203 26.3044 97.3562 26.9726 97.4528 27.4417L99.4117 27.0383C99.3589 26.7821 99.3203 26.2876 99.3203 25.496H97.3203ZM97.454 27.4475C97.5541 27.9193 97.7998 28.5219 98.4202 28.8157L99.2763 27.0083C99.3235 27.0306 99.3624 27.0586 99.3922 27.0865C99.4211 27.1136 99.4366 27.1362 99.4425 27.1456C99.4481 27.1547 99.4452 27.1522 99.438 27.1327C99.4308 27.1132 99.4207 27.0808 99.4105 27.0325L97.454 27.4475ZM98.4202 28.8157C98.8199 29.0051 99.2873 29.056 99.7283 29.056V27.056C99.5756 27.056 99.4622 27.0463 99.3817 27.0331C99.2993 27.0196 99.2708 27.0056 99.2763 27.0083L98.4202 28.8157ZM99.7283 29.056H100.24V27.056H99.7283V29.056ZM99.246 27.9488L98.894 31.2128L100.882 31.4272L101.234 28.1632L99.246 27.9488ZM99.8883 30.32H98.4483V32.32H99.8883V30.32ZM98.4483 30.32C97.9389 30.32 97.5176 30.2517 97.1709 30.1335L96.5256 32.0265C97.1176 32.2283 97.7629 32.32 98.4483 32.32V30.32ZM97.1578 30.1291C96.8067 30.0148 96.5285 29.8597 96.3069 29.6738L95.0216 31.2062C95.4614 31.575 95.9725 31.8465 96.5387 32.0309L97.1578 30.1291ZM96.3069 29.6738C96.0708 29.4758 95.8849 29.2481 95.7431 28.9869L93.9854 29.9411C94.2489 30.4266 94.5963 30.8495 95.0216 31.2062L96.3069 29.6738ZM94.1176 28.7988C93.7251 29.2393 93.165 29.6158 92.39 29.9018L93.0825 31.7782C94.0995 31.4028 94.958 30.862 95.6109 30.1292L94.1176 28.7988ZM92.3963 29.8995C91.6222 30.1794 90.8147 30.32 89.9683 30.32V32.32C91.0418 32.32 92.0797 32.1406 93.0762 31.7805L92.3963 29.8995ZM91.6323 29.28C92.1408 29.28 92.6971 29.1522 93.272 28.9528L92.6165 27.0632C92.1461 27.2264 91.8277 27.28 91.6323 27.28V29.28ZM93.2891 28.9467C93.9434 28.7063 94.5288 28.339 95.0405 27.8535L93.664 26.4025C93.3437 26.7064 92.9905 26.9257 92.5994 27.0693L93.2891 28.9467ZM95.3523 27.128V23.48H93.3523V27.128H95.3523ZM94.3094 22.4809C93.4812 22.5164 92.6568 22.6524 91.8375 22.8865L92.387 24.8095C93.061 24.6169 93.7299 24.5076 94.3951 24.4791L94.3094 22.4809ZM91.8375 22.8865C90.9828 23.1307 90.2281 23.5026 89.6017 24.0224L90.8788 25.5616C91.255 25.2494 91.7484 24.992 92.387 24.8095L91.8375 22.8865ZM89.6017 24.0224C88.8807 24.6207 88.4883 25.4213 88.4883 26.36H90.4883C90.4883 26.04 90.5972 25.7953 90.8788 25.5616L89.6017 24.0224ZM88.4883 26.36C88.4883 27.1761 88.7046 27.972 89.3163 28.5455L90.6842 27.0865C90.6133 27.02 90.4883 26.8453 90.4883 26.36H88.4883ZM89.3287 28.557C89.939 29.11 90.7828 29.28 91.6323 29.28V27.28C90.9884 27.28 90.7442 27.1407 90.6718 27.075L89.3287 28.557ZM104.13 31.016L103.896 31.9883L103.899 31.9889L104.13 31.016ZM101.586 30.136L100.591 30.0328L100.517 30.7514L101.175 31.0479L101.586 30.136ZM101.938 26.744L102.442 25.8806L101.103 25.098L100.943 26.6408L101.938 26.744ZM104.354 27.912L104 28.8473L104.007 28.8501L104.015 28.8529L104.354 27.912ZM108.674 27.96L108.15 27.1083L108.15 27.1083L108.674 27.96ZM108.962 25.72L108.181 26.3447L108.188 26.354L108.196 26.3632L108.962 25.72ZM107.986 25L108.424 24.1012L108.424 24.1012L107.986 25ZM106.354 24.312L106.707 23.3763L106.7 23.374L106.354 24.312ZM103.842 23.128L103.312 23.976L103.318 23.9797L103.842 23.128ZM102.274 21.592L101.408 22.093L101.414 22.1021L101.419 22.111L102.274 21.592ZM102.466 16.92L101.64 16.3567L101.64 16.3567L102.466 16.92ZM104.514 15.272L104.921 16.1854L104.921 16.1854L104.514 15.272ZM110.386 15.016L110.116 15.979L110.119 15.9799L110.386 15.016ZM112.626 15.928L113.62 16.0312L113.688 15.3783L113.116 15.0564L112.626 15.928ZM112.274 19.32L111.699 20.1387L113.093 21.116L113.268 19.4232L112.274 19.32ZM110.114 18.088L109.699 18.998L109.71 19.0029L110.114 18.088ZM106.146 18.008L105.549 17.2053L105.549 17.2053L106.146 18.008ZM106.37 20.584L106.879 19.7234L106.879 19.7234L106.37 20.584ZM108.882 21.72L108.519 22.652L108.522 22.653L108.882 21.72ZM110.818 22.616L110.323 23.4853L110.331 23.4894L110.818 22.616ZM112.194 23.64L111.476 24.3368L111.476 24.3368L112.194 23.64ZM112.994 24.92L112.052 25.255L112.056 25.2678L112.061 25.2804L112.994 24.92ZM112.53 29.144L111.705 28.578L111.704 28.5807L112.53 29.144ZM110.402 30.76L110.032 29.8308L110.029 29.8323L110.402 30.76ZM106.994 30.32C106 30.32 105.125 30.2245 104.361 30.0431L103.899 31.9889C104.841 32.2128 105.875 32.32 106.994 32.32V30.32ZM104.364 30.0437C103.586 29.8567 102.797 29.5845 101.996 29.2241L101.175 31.0479C102.081 31.4555 102.988 31.7699 103.896 31.9883L104.364 30.0437ZM102.58 30.2392L102.932 26.8472L100.943 26.6408L100.591 30.0328L102.58 30.2392ZM101.433 27.6074C102.297 28.112 103.152 28.5266 104 28.8473L104.708 26.9767C103.977 26.7001 103.221 26.336 102.442 25.8806L101.433 27.6074ZM104.015 28.8529C104.927 29.1811 105.879 29.344 106.866 29.344V27.344C106.103 27.344 105.381 27.2189 104.692 26.9711L104.015 28.8529ZM106.866 29.344C107.737 29.344 108.555 29.2073 109.198 28.8117L108.15 27.1083C107.961 27.2247 107.573 27.344 106.866 27.344V29.344ZM109.198 28.8117C109.954 28.3462 110.298 27.5901 110.298 26.744H108.298C108.298 27.0073 108.225 27.0618 108.15 27.1083L109.198 28.8117ZM110.298 26.744C110.298 26.1405 110.131 25.5571 109.727 25.0768L108.196 26.3632C108.241 26.4162 108.298 26.5155 108.298 26.744H110.298ZM109.743 25.0953C109.406 24.6747 108.942 24.3538 108.424 24.1012L107.547 25.8988C107.904 26.0729 108.091 26.2319 108.181 26.3447L109.743 25.0953ZM108.424 24.1012C107.95 23.8699 107.375 23.6284 106.707 23.3763L106.001 25.2477C106.634 25.4863 107.147 25.7035 107.547 25.8988L108.424 24.1012ZM106.7 23.374C105.764 23.0281 104.99 22.6603 104.366 22.2763L103.318 23.9797C104.08 24.449 104.98 24.8706 106.007 25.25L106.7 23.374ZM104.372 22.28C103.801 21.9235 103.399 21.5179 103.129 21.073L101.419 22.111C101.874 22.8608 102.517 23.4792 103.312 23.976L104.372 22.28ZM103.139 21.091C102.895 20.67 102.746 20.1065 102.746 19.352H100.746C100.746 20.3682 100.948 21.298 101.408 22.093L103.139 21.091ZM102.746 19.352C102.746 18.6195 102.934 18.0084 103.292 17.4833L101.64 16.3567C101.038 17.2396 100.746 18.2499 100.746 19.352H102.746ZM103.292 17.4833C103.654 16.9529 104.181 16.5151 104.921 16.1854L104.107 14.3586C103.076 14.8182 102.238 15.4791 101.64 16.3567L103.292 17.4833ZM104.921 16.1854C105.65 15.8604 106.555 15.68 107.666 15.68V13.68C106.344 13.68 105.148 13.8943 104.107 14.3586L104.921 16.1854ZM107.666 15.68C108.607 15.68 109.421 15.7842 110.116 15.979L110.655 14.053C109.751 13.7998 108.751 13.68 107.666 13.68V15.68ZM110.119 15.9799C110.858 16.1839 111.528 16.4581 112.135 16.7996L113.116 15.0564C112.358 14.6299 111.535 14.2961 110.652 14.0521L110.119 15.9799ZM111.631 15.8248L111.279 19.2168L113.268 19.4232L113.62 16.0312L111.631 15.8248ZM112.848 18.5013C112.085 17.9661 111.308 17.522 110.517 17.1731L109.71 19.0029C110.37 19.294 111.033 19.6712 111.699 20.1387L112.848 18.5013ZM110.529 17.1781C109.662 16.7832 108.725 16.592 107.73 16.592V18.592C108.463 18.592 109.114 18.7315 109.699 18.9979L110.529 17.1781ZM107.73 16.592C106.929 16.592 106.159 16.7524 105.549 17.2053L106.742 18.8107C106.879 18.709 107.166 18.592 107.73 18.592V16.592ZM105.549 17.2053C104.894 17.6922 104.586 18.4005 104.586 19.192H106.586C106.586 18.9595 106.651 18.8784 106.742 18.8107L105.549 17.2053ZM104.586 19.192C104.586 20.156 105.027 20.9511 105.86 21.4446L106.879 19.7234C106.667 19.5982 106.586 19.4654 106.586 19.192H104.586ZM105.86 21.4446C106.457 21.7975 107.357 22.2001 108.519 22.652L109.244 20.788C108.102 20.3439 107.328 19.9892 106.879 19.7234L105.86 21.4446ZM108.522 22.653C109.234 22.9278 109.833 23.2062 110.323 23.4853L111.312 21.7467C110.715 21.4072 110.023 21.0882 109.242 20.787L108.522 22.653ZM110.331 23.4894C110.818 23.7614 111.195 24.0465 111.476 24.3368L112.911 22.9432C112.468 22.4868 111.926 22.0893 111.305 21.7426L110.331 23.4894ZM111.476 24.3368C111.741 24.6094 111.93 24.9133 112.052 25.255L113.936 24.585C113.716 23.9667 113.372 23.4173 112.911 22.9432L111.476 24.3368ZM112.061 25.2804C112.189 25.6117 112.266 26.0292 112.266 26.552H114.266C114.266 25.8375 114.161 25.1669 113.927 24.5596L112.061 25.2804ZM112.266 26.552C112.266 27.3983 112.063 28.0566 111.705 28.578L113.354 29.71C113.978 28.802 114.266 27.7324 114.266 26.552H112.266ZM111.704 28.5807C111.355 29.0913 110.821 29.5172 110.032 29.8308L110.771 31.6892C111.86 31.2561 112.744 30.6047 113.356 29.7073L111.704 28.5807ZM110.029 29.8323C109.252 30.1445 108.251 30.32 106.994 30.32V32.32C108.424 32.32 109.695 32.1221 110.775 31.6877L110.029 29.8323ZM115.949 31H114.949V32H115.949V31ZM115.949 7V6H114.949V7H115.949ZM119.917 7H120.917V6H119.917V7ZM119.917 17.336L119.299 18.1223L120.917 19.3935V17.336H119.917ZM119.021 16.632L118.448 15.8122L117.342 16.5847L118.403 17.4183L119.021 16.632ZM127.485 15.688L126.906 16.5031L126.912 16.5077L127.485 15.688ZM129.437 18.28L128.501 18.6311L128.502 18.6341L129.437 18.28ZM130.061 31V32H131.061V31H130.061ZM126.093 31H125.093V32H126.093V31ZM125.373 19.08L124.543 19.6376L124.543 19.6376L125.373 19.08ZM120.733 18.664L121.321 19.4727L121.324 19.4709L120.733 18.664ZM119.181 20.408L118.235 20.0833L120.035 20.9279L119.181 20.408ZM119.917 18.264H120.917L118.971 17.9393L119.917 18.264ZM119.917 31V32H120.917V31H119.917ZM116.949 31V7H114.949V31H116.949ZM115.949 8H119.917V6H115.949V8ZM118.917 7V17.336H120.917V7H118.917ZM120.535 16.5497L119.639 15.8457L118.403 17.4183L119.299 18.1223L120.535 16.5497ZM119.594 17.4518C120.223 17.0124 120.911 16.605 121.66 16.2304L120.766 14.4416C119.936 14.8564 119.163 15.3129 118.448 15.8122L119.594 17.4518ZM121.66 16.2304C122.281 15.9201 123.064 15.744 124.045 15.744V13.744C122.828 13.744 121.724 13.9626 120.766 14.4416L121.66 16.2304ZM124.045 15.744C125.307 15.744 126.233 16.0252 126.906 16.5031L128.064 14.8729C126.966 14.0921 125.599 13.744 124.045 13.744V15.744ZM126.912 16.5077C127.616 16.9993 128.148 17.692 128.501 18.6311L130.373 17.9289C129.894 16.6494 129.125 15.614 128.058 14.8683L126.912 16.5077ZM128.502 18.6341C128.866 19.5965 129.061 20.7469 129.061 22.104H131.061C131.061 20.5598 130.84 19.1608 130.372 17.9259L128.502 18.6341ZM129.061 22.104V31H131.061V22.104H129.061ZM130.061 30H126.093V32H130.061V30ZM127.093 31V22.392H125.093V31H127.093ZM127.093 22.392C127.093 20.829 126.849 19.4837 126.203 18.5224L124.543 19.6376C124.857 20.1056 125.093 20.9683 125.093 22.392H127.093ZM126.203 18.5224C125.488 17.458 124.343 17.008 123.021 17.008V19.008C123.875 19.008 124.298 19.2727 124.543 19.6376L126.203 18.5224ZM123.021 17.008C121.935 17.008 120.95 17.2656 120.142 17.8571L121.324 19.4709C121.71 19.1878 122.251 19.008 123.021 19.008V17.008ZM120.145 17.8553C119.433 18.3728 118.831 19.06 118.327 19.8881L120.035 20.9279C120.427 20.284 120.859 19.8085 121.321 19.4727L120.145 17.8553ZM120.127 20.7327L120.863 18.5887L118.971 17.9393L118.235 20.0833L120.127 20.7327ZM118.917 18.264V31H120.917V18.264H118.917ZM119.917 30H115.949V32H119.917V30ZM137.441 31.176L137.627 30.1933L137.616 30.1914L137.441 31.176ZM134.769 30.552L134.472 31.5068L134.483 31.5102L134.769 30.552ZM132.817 29.816L131.823 29.7064L131.746 30.4055L132.378 30.7144L132.817 29.816ZM133.297 25.464L133.734 24.5645L132.459 23.945L132.303 25.3544L133.297 25.464ZM135.633 26.472L135.99 25.5377L135.99 25.5377L135.633 26.472ZM138.129 27.224L138.349 26.2484L138.349 26.2484L138.129 27.224ZM143.345 26.872L142.803 26.0317L142.803 26.0317L143.345 26.872ZM143.777 23.304L143.033 23.972L143.042 23.9815L143.777 23.304ZM142.065 22.2L141.67 23.1185L141.681 23.1231L142.065 22.2ZM139.121 21.08L138.792 22.0244L138.792 22.0244L139.121 21.08ZM135.905 19.672L135.415 20.5439L135.423 20.548L135.905 19.672ZM133.649 17.656L134.475 17.0913L134.475 17.0913L133.649 17.656ZM133.729 11.256L134.574 11.7911L134.577 11.7868L133.729 11.256ZM136.449 8.984L136.861 9.89547L136.864 9.89382L136.449 8.984ZM144.881 8.616L144.639 9.58617L144.647 9.58808L144.881 8.616ZM148.049 9.592L149.044 9.69075L149.118 8.94434L148.423 8.6643L148.049 9.592ZM147.633 13.784L147.224 14.6962L148.491 15.2656L148.628 13.8828L147.633 13.784ZM144.081 12.504L143.819 13.469L143.83 13.4719L144.081 12.504ZM137.953 12.648L137.435 11.793L137.435 11.793L137.953 12.648ZM139.073 16.936L138.692 17.8605L138.704 17.8655L139.073 16.936ZM141.489 17.784L141.186 18.7369L141.188 18.7376L141.489 17.784ZM145.569 19.48L145.079 20.3514L145.089 20.3569L145.569 19.48ZM148.065 21.704L147.221 22.2395L147.225 22.2456L147.228 22.2515L148.065 21.704ZM148.609 27.016L149.574 27.278L149.575 27.2745L148.609 27.016ZM147.409 29.144L148.157 29.8084L147.409 29.144ZM144.785 30.808L145.135 31.7447L145.14 31.7429L144.785 30.808ZM140.241 30.448C139.401 30.448 138.53 30.364 137.627 30.1934L137.256 32.1586C138.272 32.3506 139.268 32.448 140.241 32.448V30.448ZM137.616 30.1914C136.689 30.0266 135.836 29.8269 135.055 29.5938L134.483 31.5102C135.345 31.7678 136.274 31.9841 137.266 32.1606L137.616 30.1914ZM135.067 29.5973C134.269 29.3485 133.672 29.1207 133.256 28.9176L132.378 30.7144C132.923 30.9807 133.627 31.2435 134.472 31.5067L135.067 29.5973ZM133.811 29.9256L134.291 25.5736L132.303 25.3544L131.823 29.7064L133.811 29.9256ZM132.86 26.3635C133.634 26.7395 134.44 27.087 135.277 27.4063L135.99 25.5377C135.205 25.2383 134.453 24.9138 133.734 24.5645L132.86 26.3635ZM135.277 27.4063C136.132 27.7328 137.01 27.9972 137.91 28.1996L138.349 26.2484C137.542 26.0668 136.755 25.8299 135.99 25.5377L135.277 27.4063ZM137.91 28.1996C138.835 28.4078 139.773 28.512 140.721 28.512V26.512C139.92 26.512 139.13 26.4242 138.349 26.2484L137.91 28.1996ZM140.721 28.512C141.931 28.512 143.014 28.276 143.887 27.7123L142.803 26.0317C142.354 26.3214 141.688 26.512 140.721 26.512V28.512ZM143.887 27.7123C144.87 27.0785 145.337 26.0896 145.337 24.92H143.337C143.337 25.4998 143.143 25.8122 142.803 26.0317L143.887 27.7123ZM145.337 24.92C145.337 24.0549 145.092 23.2551 144.513 22.6265L143.042 23.9815C143.209 24.1636 143.337 24.4411 143.337 24.92H145.337ZM144.521 22.6361C144.012 22.0687 143.294 21.6286 142.45 21.2769L141.681 23.1231C142.373 23.4114 142.796 23.7073 143.033 23.9719L144.521 22.6361ZM142.461 21.2815C141.663 20.938 140.657 20.5559 139.45 20.1356L138.792 22.0244C139.975 22.4361 140.932 22.8007 141.67 23.1185L142.461 21.2815ZM139.45 20.1356C138.3 19.7351 137.28 19.2876 136.388 18.796L135.423 20.548C136.429 21.1018 137.553 21.5929 138.792 22.0244L139.45 20.1356ZM136.395 18.8002C135.565 18.3338 134.933 17.7619 134.475 17.0913L132.824 18.2207C133.474 19.1714 134.347 19.9435 135.415 20.5438L136.395 18.8002ZM134.475 17.0913C134.062 16.4882 133.817 15.6656 133.817 14.552H131.817C131.817 15.9557 132.127 17.2025 132.824 18.2207L134.475 17.0913ZM133.817 14.552C133.817 13.4866 134.076 12.5768 134.574 11.7911L132.884 10.7209C132.166 11.8552 131.817 13.1427 131.817 14.552H133.817ZM134.577 11.7868C135.065 11.0079 135.806 10.3712 136.861 9.89547L136.038 8.07253C134.681 8.68477 133.61 9.56272 132.882 10.7252L134.577 11.7868ZM136.864 9.89382C137.913 9.41548 139.271 9.152 140.977 9.152V7.152C139.079 7.152 137.418 7.44318 136.034 8.07418L136.864 9.89382ZM140.977 9.152C142.267 9.152 143.486 9.29798 144.639 9.58614L145.124 7.64586C143.802 7.31535 142.419 7.152 140.977 7.152V9.152ZM144.647 9.58808C145.852 9.87901 146.859 10.1909 147.676 10.5197L148.423 8.6643C147.49 8.28913 146.385 7.95032 145.116 7.64392L144.647 9.58808ZM147.054 9.49325L146.638 13.6852L148.628 13.8828L149.044 9.69075L147.054 9.49325ZM148.043 12.8718C146.743 12.2879 145.506 11.8407 144.333 11.5361L143.83 13.4719C144.875 13.7433 146.006 14.1494 147.224 14.6962L148.043 12.8718ZM144.344 11.539C143.159 11.2171 141.951 11.056 140.721 11.056V13.056C141.774 13.056 142.806 13.1936 143.819 13.469L144.344 11.539ZM140.721 11.056C139.439 11.056 138.307 11.264 137.435 11.793L138.472 13.503C138.901 13.2427 139.614 13.056 140.721 13.056V11.056ZM137.435 11.793C136.472 12.377 135.977 13.301 135.977 14.424H137.977C137.977 13.9683 138.133 13.7083 138.472 13.503L137.435 11.793ZM135.977 14.424C135.977 15.2567 136.224 16.0264 136.794 16.6306L138.248 15.2574C138.094 15.0936 137.977 14.85 137.977 14.424H135.977ZM136.794 16.6306C137.283 17.1484 137.935 17.5482 138.692 17.8604L139.455 16.0116C138.867 15.7692 138.485 15.5076 138.248 15.2574L136.794 16.6306ZM138.704 17.8655C139.404 18.1432 140.233 18.4335 141.186 18.7369L141.792 16.8311C140.869 16.5371 140.086 16.2622 139.442 16.0065L138.704 17.8655ZM141.188 18.7376C142.765 19.2355 144.057 19.7759 145.079 20.3513L146.06 18.6087C144.884 17.9467 143.456 17.3565 141.79 16.8304L141.188 18.7376ZM145.089 20.3569C146.082 20.9015 146.775 21.5359 147.221 22.2395L148.91 21.1685C148.247 20.1227 147.275 19.2745 146.05 18.6031L145.089 20.3569ZM147.228 22.2515C147.664 22.9176 147.913 23.7878 147.913 24.92H149.913C149.913 23.4922 149.597 22.2184 148.902 21.1565L147.228 22.2515ZM147.913 24.92C147.913 25.4557 147.828 26.0663 147.643 26.7575L149.575 27.2745C149.796 26.451 149.913 25.6643 149.913 24.92H147.913ZM147.644 26.754C147.488 27.3291 147.173 27.9044 146.662 28.4796L148.157 29.8084C148.84 29.0396 149.325 28.1962 149.574 27.278L147.644 26.754ZM146.662 28.4796C146.204 28.9949 145.485 29.4729 144.43 29.8731L145.14 31.7429C146.39 31.2685 147.42 30.6371 148.157 29.8084L146.662 28.4796ZM144.435 29.8713C143.45 30.2396 142.068 30.448 140.241 30.448V32.448C142.19 32.448 143.838 32.2297 145.135 31.7447L144.435 29.8713ZM154.093 30.712L153.541 31.5463L153.551 31.5527L154.093 30.712ZM152.701 29.128L153.607 28.7051L153.607 28.7051L152.701 29.128ZM152.253 18.264H153.253V17.264H152.253V18.264ZM149.981 18.264L148.987 18.1568L148.867 19.264H149.981V18.264ZM150.333 15V14H149.435L149.339 14.8928L150.333 15ZM152.253 15V16H153.253V15H152.253ZM152.253 11.48L152.148 10.4855L151.253 10.5794V11.48H152.253ZM156.221 11.064H157.221V9.95368L156.116 10.0694L156.221 11.064ZM156.221 15H155.221V16H156.221V15ZM159.741 15H160.741V14H159.741V15ZM159.741 18.264V19.264H160.741V18.264H159.741ZM156.221 18.264V17.264H155.221V18.264H156.221ZM156.365 27.256L155.398 27.5119L155.4 27.5191L156.365 27.256ZM157.021 27.928L156.75 28.8907L156.764 28.8946L156.778 28.8981L157.021 27.928ZM159.741 28.056L160.735 28.1632L160.854 27.056H159.741V28.056ZM159.389 31.32V32.32H160.287L160.383 31.4272L159.389 31.32ZM156.541 30.32C155.667 30.32 155.056 30.1429 154.634 29.8713L153.551 31.5527C154.388 32.0918 155.41 32.32 156.541 32.32V30.32ZM154.644 29.8778C154.158 29.5563 153.822 29.1664 153.607 28.7051L151.795 29.5509C152.177 30.3696 152.769 31.0357 153.541 31.5462L154.644 29.8778ZM153.607 28.7051C153.369 28.195 153.253 27.6724 153.253 27.128H151.253C151.253 27.9702 151.435 28.781 151.795 29.5509L153.607 28.7051ZM153.253 27.128V18.264H151.253V27.128H153.253ZM152.253 17.264H149.981V19.264H152.253V17.264ZM150.975 18.3712L151.327 15.1072L149.339 14.8928L148.987 18.1568L150.975 18.3712ZM150.333 16H152.253V14H150.333V16ZM153.253 15V11.48H151.253V15H153.253ZM152.357 12.4745L156.325 12.0585L156.116 10.0694L152.148 10.4855L152.357 12.4745ZM155.221 11.064V15H157.221V11.064H155.221ZM156.221 16H159.741V14H156.221V16ZM158.741 15V18.264H160.741V15H158.741ZM159.741 17.264H156.221V19.264H159.741V17.264ZM155.221 18.264V25.496H157.221V18.264H155.221ZM155.221 25.496C155.221 26.3171 155.267 27.0151 155.398 27.5119L157.331 27.0001C157.271 26.7716 157.221 26.2962 157.221 25.496H155.221ZM155.4 27.5191C155.585 28.198 156.059 28.6962 156.75 28.8907L157.291 26.9653C157.277 26.9613 157.276 26.9594 157.284 26.9638C157.292 26.9685 157.304 26.977 157.316 26.9895C157.328 27.0019 157.335 27.0124 157.337 27.0166C157.339 27.0202 157.335 27.0139 157.33 26.9929L155.4 27.5191ZM156.778 28.8981C157.246 29.0151 157.894 29.056 158.653 29.056V27.056C157.918 27.056 157.478 27.0115 157.263 26.9579L156.778 28.8981ZM158.653 29.056H159.741V27.056H158.653V29.056ZM158.747 27.9488L158.395 31.2128L160.383 31.4272L160.735 28.1632L158.747 27.9488ZM159.389 30.32H156.541V32.32H159.389V30.32ZM163.445 30.76L162.966 31.638L162.976 31.6435L163.445 30.76ZM161.765 29.112L160.901 29.6151L161.765 29.112ZM161.765 24.2L160.928 23.6516L160.926 23.655L161.765 24.2ZM163.429 22.584L163.959 23.432L163.962 23.4298L163.429 22.584ZM165.669 21.56L165.962 22.5161L165.97 22.5136L165.669 21.56ZM168.053 21L167.906 20.0109L167.904 20.0112L168.053 21ZM170.133 20.792L170.168 21.7914L171.179 21.7553L171.132 20.7455L170.133 20.792ZM169.429 18.792L168.731 19.508L168.731 19.508L169.429 18.792ZM165.157 18.472L165.431 19.4336L165.441 19.4306L165.157 18.472ZM162.869 19.384L161.875 19.4923L162.029 20.9061L163.307 20.2829L162.869 19.384ZM162.517 16.152L162.078 15.2536L161.447 15.5621L161.523 16.2603L162.517 16.152ZM165.397 15.096L165.162 14.124L165.159 14.1246L165.397 15.096ZM171.429 15.384L171.872 14.4874L171.872 14.4874L171.429 15.384ZM173.429 17.448L172.532 17.8912L172.534 17.8952L173.429 17.448ZM174.245 27.24L173.265 27.4417L173.267 27.4475L174.245 27.24ZM174.661 27.912L174.233 28.8157L174.233 28.8157L174.661 27.912ZM176.053 28.056L177.047 28.1632L177.166 27.056H176.053V28.056ZM175.701 31.32V32.32H176.599L176.695 31.4272L175.701 31.32ZM172.661 31.08L172.983 30.1334L172.97 30.1291L172.661 31.08ZM171.477 30.44L170.834 31.2062L170.834 31.2062L171.477 30.44ZM170.677 29.464L171.556 28.9869L170.877 27.7363L169.93 28.7988L170.677 29.464ZM168.549 30.84L168.889 31.7805L168.895 31.7782L168.549 30.84ZM168.757 28.008L169.085 28.9528L169.093 28.9498L169.102 28.9467L168.757 28.008ZM170.165 27.128L170.853 27.8535L171.165 27.5577V27.128H170.165ZM170.165 23.48H171.165V22.4362L170.122 22.4809L170.165 23.48ZM167.925 23.848L167.65 22.8865L167.65 22.8865L167.925 23.848ZM166.053 24.792L165.414 24.0224L165.414 24.0224L166.053 24.792ZM165.813 27.816L165.129 28.5455L165.135 28.5513L165.141 28.557L165.813 27.816ZM165.781 30.32C165.079 30.32 164.463 30.168 163.913 29.8765L162.976 31.6435C163.835 32.0987 164.776 32.32 165.781 32.32V30.32ZM163.924 29.8821C163.385 29.5883 162.956 29.171 162.629 28.6089L160.901 29.6151C161.405 30.4823 162.096 31.1637 162.966 31.6379L163.924 29.8821ZM162.629 28.6089C162.32 28.078 162.141 27.3962 162.141 26.52H160.141C160.141 27.6704 160.378 28.7167 160.901 29.6151L162.629 28.6089ZM162.141 26.52C162.141 25.7699 162.311 25.1944 162.603 24.745L160.926 23.655C160.386 24.4856 160.141 25.4568 160.141 26.52H162.141ZM162.601 24.7484C162.946 24.2227 163.394 23.7848 163.959 23.432L162.899 21.736C162.098 22.2365 161.437 22.8759 160.929 23.6516L162.601 24.7484ZM163.962 23.4298C164.579 23.0407 165.245 22.736 165.962 22.5161L165.376 20.6039C164.493 20.8747 163.665 21.2527 162.895 21.7382L163.962 23.4298ZM165.97 22.5136C166.735 22.2721 167.479 22.0978 168.202 21.9888L167.904 20.0112C167.07 20.1369 166.224 20.3359 165.368 20.6064L165.97 22.5136ZM168.2 21.9891C168.964 21.8756 169.618 21.811 170.168 21.7914L170.097 19.7926C169.452 19.8157 168.721 19.8897 167.906 20.0109L168.2 21.9891ZM171.132 20.7455C171.083 19.7076 170.812 18.7438 170.127 18.076L168.731 19.508C168.899 19.6722 169.097 20.0418 169.134 20.8385L171.132 20.7455ZM170.127 18.076C169.418 17.3846 168.363 17.168 167.253 17.168V19.168C168.19 19.168 168.586 19.3674 168.731 19.508L170.127 18.076ZM167.253 17.168C166.442 17.168 165.648 17.2832 164.872 17.5134L165.441 19.4306C166.031 19.2555 166.634 19.168 167.253 19.168V17.168ZM164.882 17.5105C164.138 17.7231 163.319 18.0519 162.431 18.4851L163.307 20.2829C164.125 19.8841 164.832 19.6049 165.431 19.4335L164.882 17.5105ZM163.863 19.2757L163.511 16.0437L161.523 16.2603L161.875 19.4923L163.863 19.2757ZM162.956 17.0504C163.857 16.61 164.749 16.2837 165.634 16.0674L165.159 14.1246C164.124 14.3776 163.097 14.7553 162.078 15.2536L162.956 17.0504ZM165.632 16.068C166.526 15.8518 167.428 15.744 168.341 15.744V13.744C167.269 13.744 166.209 13.8709 165.162 14.124L165.632 16.068ZM168.341 15.744C169.418 15.744 170.289 15.9363 170.986 16.2806L171.872 14.4874C170.841 13.9784 169.653 13.744 168.341 13.744V15.744ZM170.986 16.2806C171.633 16.6003 172.15 17.1181 172.532 17.8912L174.325 17.0048C173.769 15.8793 172.952 15.021 171.872 14.4874L170.986 16.2806ZM172.534 17.8952C172.909 18.645 173.133 19.7168 173.133 21.176H175.133C175.133 19.5419 174.887 18.1284 174.323 17.0008L172.534 17.8952ZM173.133 21.176V25.496H175.133V21.176H173.133ZM173.133 25.496C173.133 26.3044 173.169 26.9726 173.265 27.4417L175.224 27.0383C175.171 26.7821 175.133 26.2876 175.133 25.496H173.133ZM173.267 27.4475C173.367 27.9193 173.612 28.5219 174.233 28.8157L175.089 27.0083C175.136 27.0306 175.175 27.0586 175.205 27.0865C175.234 27.1136 175.249 27.1362 175.255 27.1456C175.261 27.1547 175.258 27.1522 175.25 27.1327C175.243 27.1132 175.233 27.0808 175.223 27.0325L173.267 27.4475ZM174.233 28.8157C174.632 29.0051 175.1 29.056 175.541 29.056V27.056C175.388 27.056 175.275 27.0463 175.194 27.0331C175.112 27.0196 175.083 27.0056 175.089 27.0083L174.233 28.8157ZM175.541 29.056H176.053V27.056H175.541V29.056ZM175.059 27.9488L174.707 31.2128L176.695 31.4272L177.047 28.1632L175.059 27.9488ZM175.701 30.32H174.261V32.32H175.701V30.32ZM174.261 30.32C173.751 30.32 173.33 30.2517 172.983 30.1335L172.338 32.0265C172.93 32.2283 173.575 32.32 174.261 32.32V30.32ZM172.97 30.1291C172.619 30.0148 172.341 29.8597 172.119 29.6738L170.834 31.2062C171.274 31.575 171.785 31.8465 172.351 32.0309L172.97 30.1291ZM172.119 29.6738C171.883 29.4758 171.697 29.2481 171.556 28.9869L169.798 29.9411C170.061 30.4266 170.409 30.8495 170.834 31.2062L172.119 29.6738ZM169.93 28.7988C169.538 29.2393 168.978 29.6158 168.203 29.9018L168.895 31.7782C169.912 31.4028 170.771 30.862 171.423 30.1292L169.93 28.7988ZM168.209 29.8995C167.435 30.1794 166.627 30.32 165.781 30.32V32.32C166.854 32.32 167.892 32.1406 168.889 31.7805L168.209 29.8995ZM167.445 29.28C167.953 29.28 168.51 29.1522 169.085 28.9528L168.429 27.0632C167.959 27.2264 167.64 27.28 167.445 27.28V29.28ZM169.102 28.9467C169.756 28.7063 170.341 28.339 170.853 27.8535L169.476 26.4025C169.156 26.7064 168.803 26.9257 168.412 27.0693L169.102 28.9467ZM171.165 27.128V23.48H169.165V27.128H171.165ZM170.122 22.4809C169.294 22.5164 168.469 22.6524 167.65 22.8865L168.199 24.8095C168.874 24.6169 169.542 24.5076 170.208 24.4791L170.122 22.4809ZM167.65 22.8865C166.795 23.1307 166.041 23.5026 165.414 24.0224L166.691 25.5616C167.068 25.2494 167.561 24.992 168.199 24.8095L167.65 22.8865ZM165.414 24.0224C164.693 24.6207 164.301 25.4213 164.301 26.36H166.301C166.301 26.04 166.41 25.7953 166.691 25.5616L165.414 24.0224ZM164.301 26.36C164.301 27.1761 164.517 27.972 165.129 28.5455L166.497 27.0865C166.426 27.02 166.301 26.8453 166.301 26.36H164.301ZM165.141 28.557C165.751 29.11 166.595 29.28 167.445 29.28V27.28C166.801 27.28 166.557 27.1407 166.484 27.075L165.141 28.557ZM181.062 30.2L180.54 31.053L180.549 31.0581L181.062 30.2ZM178.246 27.192L177.352 27.6392L177.356 27.6483L178.246 27.192ZM178.246 18.856L179.141 19.3032L179.142 19.3002L178.246 18.856ZM181.078 15.816L181.594 16.6729L181.594 16.6729L181.078 15.816ZM188.246 14.984L187.977 15.9472L187.99 15.9507L188.246 14.984ZM190.102 15.704L191.097 15.8035L191.162 15.153L190.593 14.8324L190.102 15.704ZM189.782 18.904L189.32 19.7906L190.63 20.4743L190.777 19.0035L189.782 18.904ZM188.118 18.264L187.848 19.2268L187.852 19.228L188.118 18.264ZM182.63 19.4L183.371 20.0722L183.371 20.0722L182.63 19.4ZM182.662 26.616L181.915 27.2809L181.919 27.285L182.662 26.616ZM188.022 27.784L188.308 28.7423L188.319 28.7391L188.022 27.784ZM189.814 27L190.809 26.8958L190.649 25.3679L189.316 26.1327L189.814 27ZM190.166 30.36L190.627 31.2475L191.232 30.9335L191.161 30.2558L190.166 30.36ZM188.15 31.048L187.939 30.0706L187.931 30.0723L187.923 30.0741L188.15 31.048ZM185.686 30.32C183.986 30.32 182.633 29.9743 181.576 29.3419L180.549 31.0581C181.988 31.919 183.717 32.32 185.686 32.32V30.32ZM181.584 29.3471C180.498 28.6822 179.689 27.8144 179.136 26.7357L177.356 27.6483C178.083 29.0656 179.152 30.2031 180.54 31.0529L181.584 29.3471ZM179.141 26.7448C178.586 25.6354 178.302 24.4035 178.302 23.032H176.302C176.302 24.6898 176.648 26.2313 177.352 27.6392L179.141 26.7448ZM178.302 23.032C178.302 21.6486 178.586 20.4116 179.141 19.3032L177.352 18.4088C176.647 19.8177 176.302 21.3647 176.302 23.032H178.302ZM179.142 19.3002C179.683 18.2084 180.492 17.3356 181.594 16.6729L180.563 14.9591C179.147 15.8111 178.068 16.9649 177.35 18.4118L179.142 19.3002ZM181.594 16.6729C182.658 16.0328 184.045 15.68 185.814 15.68V13.68C183.786 13.68 182.016 14.0845 180.563 14.9591L181.594 16.6729ZM185.814 15.68C186.636 15.68 187.354 15.773 187.977 15.9471L188.515 14.0209C187.688 13.7896 186.785 13.68 185.814 13.68V15.68ZM187.99 15.9507C188.655 16.1267 189.191 16.3387 189.612 16.5756L190.593 14.8324C189.99 14.4933 189.288 14.2253 188.502 14.0173L187.99 15.9507ZM189.107 15.6045L188.787 18.8045L190.777 19.0035L191.097 15.8035L189.107 15.6045ZM190.245 18.0174C189.683 17.724 189.06 17.4866 188.384 17.3L187.852 19.228C188.413 19.3828 188.901 19.572 189.32 19.7906L190.245 18.0174ZM188.389 17.3012C187.687 17.1043 186.956 17.008 186.198 17.008V19.008C186.785 19.008 187.333 19.0823 187.848 19.2268L188.389 17.3012ZM186.198 17.008C184.449 17.008 182.964 17.5451 181.89 18.7278L183.371 20.0722C183.982 19.3989 184.876 19.008 186.198 19.008V17.008ZM181.89 18.7278C180.849 19.8739 180.366 21.3404 180.366 23.032H182.366C182.366 21.737 182.726 20.7821 183.371 20.0722L181.89 18.7278ZM180.366 23.032C180.366 24.6715 180.873 26.1097 181.915 27.2809L183.409 25.9511C182.724 25.181 182.366 24.2298 182.366 23.032H180.366ZM181.919 27.285C183 28.4862 184.455 29.056 186.166 29.056V27.056C184.934 27.056 184.052 26.6658 183.406 25.947L181.919 27.285ZM186.166 29.056C186.893 29.056 187.608 28.9511 188.308 28.7423L187.736 26.8257C187.22 26.9796 186.698 27.056 186.166 27.056V29.056ZM188.319 28.7391C189.009 28.5247 189.674 28.2336 190.312 27.8673L189.316 26.1327C188.802 26.4278 188.273 26.6593 187.726 26.8289L188.319 28.7391ZM188.82 27.1042L189.172 30.4642L191.161 30.2558L190.809 26.8958L188.82 27.1042ZM189.705 29.4725C189.249 29.7097 188.665 29.9135 187.939 30.0706L188.362 32.0254C189.214 31.8411 189.975 31.5863 190.627 31.2475L189.705 29.4725ZM187.923 30.0741C187.225 30.2367 186.48 30.32 185.686 30.32V32.32C186.621 32.32 187.518 32.2219 188.377 32.0219L187.923 30.0741ZM192.793 31H191.793V32H192.793V31ZM192.793 7V6H191.793V7H192.793ZM196.761 7H197.761V6H196.761V7ZM196.761 21.56H195.761V24.5407L197.558 22.1631L196.761 21.56ZM201.721 15V14H201.223L200.923 14.3969L201.721 15ZM206.201 15L206.998 15.6042L208.214 14H206.201V15ZM200.377 22.68L199.58 22.0758L199.135 22.6627L199.563 23.2618L200.377 22.68ZM206.329 31V32H208.274L207.142 30.4182L206.329 31ZM201.849 31L201.036 31.5823L201.335 32H201.849V31ZM196.761 23.896L197.574 23.3137L195.761 20.7824V23.896H196.761ZM196.761 31V32H197.761V31H196.761ZM193.793 31V7H191.793V31H193.793ZM192.793 8H196.761V6H192.793V8ZM195.761 7V21.56H197.761V7H195.761ZM197.558 22.1631L202.518 15.6031L200.923 14.3969L195.963 20.9569L197.558 22.1631ZM201.721 16H206.201V14H201.721V16ZM205.404 14.3958L199.58 22.0758L201.174 23.2842L206.998 15.6042L205.404 14.3958ZM199.563 23.2618L205.515 31.5818L207.142 30.4182L201.19 22.0982L199.563 23.2618ZM206.329 30H201.849V32H206.329V30ZM202.662 30.4177L197.574 23.3137L195.948 24.4783L201.036 31.5823L202.662 30.4177ZM195.761 23.896V31H197.761V23.896H195.761ZM196.761 30H192.793V32H196.761V30ZM210.036 31.016L209.802 31.9883L209.805 31.9889L210.036 31.016ZM207.492 30.136L206.497 30.0328L206.423 30.7514L207.082 31.0479L207.492 30.136ZM207.844 26.744L208.349 25.8806L207.009 25.098L206.849 26.6408L207.844 26.744ZM210.26 27.912L209.906 28.8473L209.914 28.8501L209.921 28.8529L210.26 27.912ZM214.58 27.96L214.056 27.1083L214.056 27.1083L214.58 27.96ZM214.868 25.72L214.087 26.3447L214.095 26.354L214.102 26.3632L214.868 25.72ZM213.892 25L214.33 24.1012L214.33 24.1012L213.892 25ZM212.26 24.312L212.613 23.3763L212.607 23.374L212.26 24.312ZM209.748 23.128L209.218 23.976L209.224 23.9797L209.748 23.128ZM208.18 21.592L207.315 22.093L207.32 22.1021L207.325 22.111L208.18 21.592ZM208.372 16.92L207.546 16.3567L207.546 16.3567L208.372 16.92ZM210.42 15.272L210.827 16.1854L210.827 16.1854L210.42 15.272ZM216.292 15.016L216.022 15.979L216.026 15.9799L216.292 15.016ZM218.532 15.928L219.527 16.0312L219.594 15.3783L219.022 15.0564L218.532 15.928ZM218.18 19.32L217.606 20.1387L218.999 21.116L219.175 19.4232L218.18 19.32ZM216.02 18.088L215.605 18.998L215.616 19.0029L216.02 18.088ZM212.052 18.008L211.456 17.2053L211.456 17.2053L212.052 18.008ZM212.276 20.584L212.785 19.7234L212.785 19.7234L212.276 20.584ZM214.788 21.72L214.426 22.652L214.428 22.653L214.788 21.72ZM216.724 22.616L216.23 23.4853L216.237 23.4894L216.724 22.616ZM218.1 23.64L217.383 24.3368L217.383 24.3368L218.1 23.64ZM218.9 24.92L217.958 25.255L217.962 25.2678L217.967 25.2804L218.9 24.92ZM218.436 29.144L217.612 28.578L217.61 28.5807L218.436 29.144ZM216.308 30.76L215.938 29.8308L215.935 29.8323L216.308 30.76ZM212.9 30.32C211.907 30.32 211.031 30.2245 210.267 30.0431L209.805 31.9889C210.747 32.2128 211.781 32.32 212.9 32.32V30.32ZM210.27 30.0437C209.492 29.8567 208.703 29.5845 207.902 29.2241L207.082 31.0479C207.987 31.4555 208.894 31.7699 209.802 31.9883L210.27 30.0437ZM208.487 30.2392L208.839 26.8472L206.849 26.6408L206.497 30.0328L208.487 30.2392ZM207.339 27.6074C208.203 28.112 209.059 28.5266 209.906 28.8473L210.614 26.9767C209.883 26.7001 209.128 26.336 208.349 25.8806L207.339 27.6074ZM209.921 28.8529C210.833 29.1811 211.785 29.344 212.772 29.344V27.344C212.009 27.344 211.287 27.2189 210.599 26.9711L209.921 28.8529ZM212.772 29.344C213.643 29.344 214.461 29.2073 215.104 28.8117L214.056 27.1083C213.867 27.2247 213.479 27.344 212.772 27.344V29.344ZM215.104 28.8117C215.86 28.3462 216.204 27.5901 216.204 26.744H214.204C214.204 27.0073 214.132 27.0618 214.056 27.1083L215.104 28.8117ZM216.204 26.744C216.204 26.1405 216.037 25.5571 215.634 25.0768L214.102 26.3632C214.147 26.4162 214.204 26.5155 214.204 26.744H216.204ZM215.649 25.0953C215.312 24.6747 214.848 24.3538 214.33 24.1012L213.454 25.8988C213.81 26.0729 213.997 26.2319 214.087 26.3447L215.649 25.0953ZM214.33 24.1012C213.856 23.8699 213.281 23.6284 212.613 23.3763L211.907 25.2477C212.54 25.4863 213.053 25.7035 213.454 25.8988L214.33 24.1012ZM212.607 23.374C211.671 23.0281 210.896 22.6603 210.272 22.2763L209.224 23.9797C209.987 24.449 210.887 24.8706 211.913 25.25L212.607 23.374ZM210.278 22.28C209.708 21.9235 209.305 21.5179 209.035 21.073L207.325 22.111C207.78 22.8608 208.423 23.4792 209.218 23.976L210.278 22.28ZM209.045 21.091C208.802 20.67 208.652 20.1065 208.652 19.352H206.652C206.652 20.3682 206.854 21.298 207.315 22.093L209.045 21.091ZM208.652 19.352C208.652 18.6195 208.84 18.0084 209.198 17.4833L207.546 16.3567C206.944 17.2396 206.652 18.2499 206.652 19.352H208.652ZM209.198 17.4833C209.56 16.9529 210.087 16.5151 210.827 16.1854L210.013 14.3586C208.982 14.8182 208.144 15.4791 207.546 16.3567L209.198 17.4833ZM210.827 16.1854C211.556 15.8604 212.462 15.68 213.572 15.68V13.68C212.25 13.68 211.055 13.8943 210.013 14.3586L210.827 16.1854ZM213.572 15.68C214.513 15.68 215.327 15.7842 216.022 15.979L216.562 14.053C215.657 13.7998 214.657 13.68 213.572 13.68V15.68ZM216.026 15.9799C216.764 16.1839 217.435 16.4581 218.042 16.7996L219.022 15.0564C218.264 14.6299 217.441 14.2961 216.558 14.0521L216.026 15.9799ZM217.537 15.8248L217.185 19.2168L219.175 19.4232L219.527 16.0312L217.537 15.8248ZM218.754 18.5013C217.991 17.9661 217.215 17.522 216.424 17.1731L215.616 19.0029C216.276 19.294 216.939 19.6712 217.606 20.1387L218.754 18.5013ZM216.435 17.1781C215.569 16.7832 214.631 16.592 213.636 16.592V18.592C214.369 18.592 215.021 18.7315 215.605 18.9979L216.435 17.1781ZM213.636 16.592C212.835 16.592 212.065 16.7524 211.456 17.2053L212.648 18.8107C212.785 18.709 213.072 18.592 213.636 18.592V16.592ZM211.456 17.2053C210.8 17.6922 210.492 18.4005 210.492 19.192H212.492C212.492 18.9595 212.557 18.8784 212.648 18.8107L211.456 17.2053ZM210.492 19.192C210.492 20.156 210.933 20.9511 211.767 21.4446L212.785 19.7234C212.574 19.5982 212.492 19.4654 212.492 19.192H210.492ZM211.767 21.4446C212.363 21.7975 213.263 22.2001 214.426 22.652L215.15 20.788C214.009 20.3439 213.234 19.9892 212.785 19.7234L211.767 21.4446ZM214.428 22.653C215.141 22.9278 215.739 23.2062 216.23 23.4853L217.218 21.7467C216.621 21.4072 215.929 21.0882 215.148 20.787L214.428 22.653ZM216.237 23.4894C216.725 23.7614 217.101 24.0465 217.383 24.3368L218.817 22.9432C218.374 22.4868 217.833 22.0893 217.211 21.7426L216.237 23.4894ZM217.383 24.3368C217.648 24.6094 217.836 24.9133 217.958 25.255L219.842 24.585C219.622 23.9667 219.278 23.4173 218.817 22.9432L217.383 24.3368ZM217.967 25.2804C218.095 25.6117 218.172 26.0292 218.172 26.552H220.172C220.172 25.8375 220.067 25.1669 219.833 24.5596L217.967 25.2804ZM218.172 26.552C218.172 27.3983 217.97 28.0566 217.612 28.578L219.26 29.71C219.884 28.802 220.172 27.7324 220.172 26.552H218.172ZM217.61 28.5807C217.262 29.0913 216.727 29.5172 215.938 29.8308L216.678 31.6892C217.766 31.2561 218.65 30.6047 219.262 29.7073L217.61 28.5807ZM215.935 29.8323C215.159 30.1445 214.157 30.32 212.9 30.32V32.32C214.331 32.32 215.601 32.1221 216.681 31.6877L215.935 29.8323Z" fill="#2364AA"/>
<path d="M23.2064 27.602H23.4722L23.6209 27.3816L32.9682 13.5271H48.0595L33.235 35.5H12.3597L17.6882 27.602H23.2064Z" stroke="#2364AA"/>
<path d="M1.94049 24.4729L16.765 2.5H36.6403L21.8158 24.4729H1.94049Z" stroke="#EA7317"/>
</svg>
