<svg width="120" height="37" viewBox="0 0 120 37" fill="none" xmlns="http://www.w3.org/2000/svg">
<rect x="0.5" y="0.5" width="119" height="36" rx="6.5" fill="#0C0D10"/>
<path d="M81.5259 17.7609V19.8801H80.0898V21.2698H81.5259V25.9919C81.5259 27.6043 82.3145 28.2493 84.2983 28.2493C84.647 28.2493 84.979 28.2109 85.2695 28.1649V26.7905C85.0205 26.8135 84.8628 26.8288 84.5889 26.8288C83.7007 26.8288 83.3106 26.4449 83.3106 25.5696V21.2698H85.2695V19.8801H83.3106V17.7609H81.5259Z" fill="white"/>
<path d="M90.3234 28.3645C92.963 28.3645 94.5817 26.729 94.5817 24.0186C94.5817 21.3236 92.9547 19.6804 90.3234 19.6804C87.6837 19.6804 86.0568 21.3236 86.0568 24.0186C86.0568 26.729 87.6754 28.3645 90.3234 28.3645ZM90.3234 26.8979C88.7711 26.8979 87.8996 25.846 87.8996 24.0186C87.8996 22.2066 88.7711 21.147 90.3234 21.147C91.8673 21.147 92.7472 22.2066 92.7472 24.0186C92.7472 25.8384 91.8673 26.8979 90.3234 26.8979Z" fill="white"/>
<path d="M95.9666 28.2032H97.7513V23.2661C97.7513 22.0914 98.7058 21.3005 100.059 21.3005C100.374 21.3005 100.906 21.3543 101.055 21.4003V19.7726C100.864 19.7265 100.524 19.7035 100.258 19.7035C99.0794 19.7035 98.075 20.3024 97.8177 21.1239H97.6848V19.8417H95.9666V28.2032Z" fill="white"/>
<path d="M105.486 21.0855C106.806 21.0855 107.669 21.9378 107.711 23.2508H103.145C103.245 21.9455 104.166 21.0855 105.486 21.0855ZM107.703 25.9458C107.371 26.5985 106.632 26.9594 105.553 26.9594C104.125 26.9594 103.204 26.0303 103.145 24.5638V24.4716H109.529V23.8958C109.529 21.2698 108.01 19.6804 105.495 19.6804C102.946 19.6804 101.328 21.3773 101.328 24.0493C101.328 26.7213 102.913 28.3645 105.503 28.3645C107.57 28.3645 109.014 27.4431 109.421 25.9458H107.703Z" fill="white"/>
<path d="M69.8223 25.1154C69.96 27.1687 71.8097 28.4818 74.5628 28.4818C77.5052 28.4818 79.3464 27.105 79.3464 24.9085C79.3464 23.1816 78.2968 22.2266 75.7501 21.6775L74.3822 21.3671C72.7647 21.0169 72.1108 20.5474 72.1108 19.7277C72.1108 18.6931 73.126 18.0167 74.6489 18.0167C76.0943 18.0167 77.0923 18.6772 77.2729 19.7357H79.1485C79.0367 17.8018 77.1955 16.4409 74.6747 16.4409C71.9646 16.4409 70.1578 17.8018 70.1578 19.8471C70.1578 21.5342 71.1817 22.537 73.4272 23.0224L75.0274 23.3805C76.6707 23.7387 77.3934 24.2639 77.3934 25.1393C77.3934 26.158 76.2577 26.8981 74.7091 26.8981C73.0486 26.8981 71.8957 26.2057 71.7323 25.1154H69.8223Z" fill="white"/>
<path d="M51.335 19.7035C50.1064 19.7035 49.0439 20.2716 48.4961 21.2237H48.3633V19.8417H46.645V30.9828H48.4297V26.9363H48.5708C49.0439 27.8193 50.0649 28.3415 51.3516 28.3415C53.6343 28.3415 55.0869 26.6753 55.0869 24.0186C55.0869 21.3619 53.6343 19.7035 51.335 19.7035ZM50.8286 26.8596C49.3345 26.8596 48.3965 25.7692 48.3965 24.0263C48.3965 22.2757 49.3345 21.1854 50.8369 21.1854C52.3477 21.1854 53.2524 22.2526 53.2524 24.0186C53.2524 25.7923 52.3477 26.8596 50.8286 26.8596Z" fill="white"/>
<path d="M61.3318 19.7035C60.1032 19.7035 59.0407 20.2716 58.4929 21.2237H58.3601V19.8417H56.6418V30.9828H58.4265V26.9363H58.5676C59.0407 27.8193 60.0617 28.3415 61.3484 28.3415C63.6311 28.3415 65.0837 26.6753 65.0837 24.0186C65.0837 21.3619 63.6311 19.7035 61.3318 19.7035ZM60.8254 26.8596C59.3313 26.8596 58.3933 25.7692 58.3933 24.0263C58.3933 22.2757 59.3313 21.1854 60.8337 21.1854C62.3445 21.1854 63.2492 22.2526 63.2492 24.0186C63.2492 25.7923 62.3445 26.8596 60.8254 26.8596Z" fill="white"/>
<path d="M43.443 28.2032H45.4907L41.0082 16.7195H38.9348L34.4523 28.2032H36.4312L37.5754 25.1552H42.3074L43.443 28.2032ZM39.8726 18.8045H40.0188L41.817 23.6591H38.0658L39.8726 18.8045Z" fill="white"/>
<path d="M35.6511 8.05761V13.5974H37.8135C39.5981 13.5974 40.6316 12.5801 40.6316 10.8103C40.6316 9.0673 39.5898 8.05761 37.8135 8.05761H35.6511ZM36.5808 8.84079H37.7097C38.9507 8.84079 39.6853 9.57022 39.6853 10.8218C39.6853 12.0925 38.9631 12.8143 37.7097 12.8143H36.5808V8.84079Z" fill="white"/>
<path d="M43.7967 13.6781C45.1165 13.6781 45.9258 12.8603 45.9258 11.5051C45.9258 10.1576 45.1124 9.33604 43.7967 9.33604C42.4769 9.33604 41.6634 10.1576 41.6634 11.5051C41.6634 12.8603 42.4727 13.6781 43.7967 13.6781ZM43.7967 12.9448C43.0206 12.9448 42.5848 12.4188 42.5848 11.5051C42.5848 10.5991 43.0206 10.0693 43.7967 10.0693C44.5687 10.0693 45.0086 10.5991 45.0086 11.5051C45.0086 12.415 44.5687 12.9448 43.7967 12.9448Z" fill="white"/>
<path d="M52.818 9.41666H51.9256L51.1205 12.607H51.0499L50.1202 9.41666H49.2652L48.3355 12.607H48.2691L47.4598 9.41666H46.555L47.8001 13.5974H48.7174L49.6471 10.5185H49.7176L50.6515 13.5974H51.577L52.818 9.41666Z" fill="white"/>
<path d="M53.8456 13.5974H54.7379V11.1519C54.7379 10.4993 55.1571 10.0923 55.817 10.0923C56.477 10.0923 56.7924 10.4263 56.7924 11.0982V13.5974H57.6847V10.8909C57.6847 9.89655 57.1286 9.33604 56.12 9.33604C55.4394 9.33604 54.9911 9.61629 54.7711 10.0808H54.7047V9.41666H53.8456V13.5974Z" fill="white"/>
<path d="M59.09 13.5974H59.9824V7.78503H59.09V13.5974Z" fill="white"/>
<path d="M63.3384 13.6781C64.6582 13.6781 65.4675 12.8603 65.4675 11.5051C65.4675 10.1576 64.6541 9.33604 63.3384 9.33604C62.0186 9.33604 61.2051 10.1576 61.2051 11.5051C61.2051 12.8603 62.0144 13.6781 63.3384 13.6781ZM63.3384 12.9448C62.5623 12.9448 62.1265 12.4188 62.1265 11.5051C62.1265 10.5991 62.5623 10.0693 63.3384 10.0693C64.1104 10.0693 64.5503 10.5991 64.5503 11.5051C64.5503 12.415 64.1104 12.9448 63.3384 12.9448Z" fill="white"/>
<path d="M68.1263 12.9717C67.6407 12.9717 67.2879 12.7528 67.2879 12.3766C67.2879 12.0081 67.5701 11.8123 68.1927 11.7739L69.2967 11.7086V12.058C69.2967 12.5762 68.7986 12.9717 68.1263 12.9717ZM67.898 13.6666C68.4915 13.6666 68.9854 13.4285 69.2552 13.0101H69.3257V13.5974H70.1849V10.7411C70.1849 9.85815 69.5457 9.33604 68.4126 9.33604C67.3875 9.33604 66.657 9.79673 66.5657 10.5146H67.429C67.5286 10.219 67.8731 10.0501 68.3711 10.0501C68.9812 10.0501 69.2967 10.2997 69.2967 10.7411V11.102L68.0723 11.1673C66.9974 11.2287 66.3914 11.6625 66.3914 12.415C66.3914 13.179 67.0264 13.6666 67.898 13.6666Z" fill="white"/>
<path d="M73.213 13.6666C73.8355 13.6666 74.3626 13.394 74.6324 12.9371H74.703V13.5974H75.558V7.78503H74.6656V10.0808H74.5992C74.3543 9.62013 73.8314 9.34755 73.213 9.34755C72.0716 9.34755 71.337 10.1845 71.337 11.5051C71.337 12.8296 72.0633 13.6666 73.213 13.6666ZM73.4662 10.0885C74.2132 10.0885 74.6822 10.6375 74.6822 11.509C74.6822 12.3843 74.2174 12.9256 73.4662 12.9256C72.7108 12.9256 72.2584 12.392 72.2584 11.5051C72.2584 10.626 72.7149 10.0885 73.4662 10.0885Z" fill="white"/>
<path d="M81.3444 13.6781C82.6643 13.6781 83.4736 12.8603 83.4736 11.5051C83.4736 10.1576 82.6601 9.33604 81.3444 9.33604C80.0246 9.33604 79.2111 10.1576 79.2111 11.5051C79.2111 12.8603 80.0205 13.6781 81.3444 13.6781ZM81.3444 12.9448C80.5683 12.9448 80.1325 12.4188 80.1325 11.5051C80.1325 10.5991 80.5683 10.0693 81.3444 10.0693C82.1164 10.0693 82.5563 10.5991 82.5563 11.5051C82.5563 12.415 82.1164 12.9448 81.3444 12.9448Z" fill="white"/>
<path d="M84.6548 13.5974H85.5471V11.1519C85.5471 10.4993 85.9663 10.0923 86.6262 10.0923C87.2861 10.0923 87.6016 10.4263 87.6016 11.0982V13.5974H88.4939V10.8909C88.4939 9.89655 87.9377 9.33604 86.9292 9.33604C86.2485 9.33604 85.8003 9.61629 85.5803 10.0808H85.5139V9.41666H84.6548V13.5974Z" fill="white"/>
<path d="M92.6036 8.37626V9.43585H91.8856V10.1307H92.6036V12.4918C92.6036 13.298 92.9979 13.6205 93.9898 13.6205C94.1642 13.6205 94.3302 13.6013 94.4754 13.5783V12.8911C94.3509 12.9026 94.2721 12.9102 94.1351 12.9102C93.691 12.9102 93.4959 12.7183 93.4959 12.2806V10.1307H94.4754V9.43585H93.4959V8.37626H92.6036Z" fill="white"/>
<path d="M95.6732 13.5974H96.5656V11.1558C96.5656 10.5223 96.9723 10.0962 97.7028 10.0962C98.3336 10.0962 98.6698 10.434 98.6698 11.102V13.5974H99.5622V10.8986C99.5622 9.90422 98.9687 9.33987 98.0058 9.33987C97.3251 9.33987 96.8478 9.62013 96.6278 10.0885H96.5573V7.78503H95.6732V13.5974Z" fill="white"/>
<path d="M102.781 10.0386C103.441 10.0386 103.873 10.4647 103.894 11.1212H101.611C101.661 10.4686 102.121 10.0386 102.781 10.0386ZM103.889 12.4688C103.723 12.7951 103.354 12.9755 102.814 12.9755C102.101 12.9755 101.64 12.511 101.611 11.7777V11.7316H104.802V11.4437C104.802 10.1307 104.043 9.33604 102.785 9.33604C101.511 9.33604 100.702 10.1845 100.702 11.5205C100.702 12.8565 101.495 13.6781 102.789 13.6781C103.823 13.6781 104.545 13.2174 104.748 12.4688H103.889Z" fill="white"/>
<path d="M24.769 18.7783C24.7907 17.2233 25.6934 15.752 27.1256 14.9376C26.2221 13.7441 24.7088 12.9873 23.1344 12.9418C21.4552 12.7787 19.8272 13.8712 18.9715 13.8712C18.0992 13.8712 16.7817 12.9579 15.363 12.9849C13.5137 13.0402 11.7898 14.0127 10.8901 15.5082C8.95607 18.6055 10.3987 23.1575 12.2513 25.6611C13.1782 26.887 14.2615 28.2565 15.6789 28.2079C17.066 28.1547 17.584 27.3898 19.2583 27.3898C20.9171 27.3898 21.4031 28.2079 22.8493 28.177C24.3377 28.1547 25.2754 26.9456 26.1698 25.7081C26.8358 24.8345 27.3483 23.8691 27.6882 22.8475C25.9391 22.1632 24.771 20.535 24.769 18.7783Z" fill="white"/>
<path d="M22.0373 11.2953C22.8489 10.3941 23.2487 9.23585 23.1518 8.06644C21.912 8.18689 20.7668 8.73501 19.9443 9.60158C19.14 10.4483 18.7214 11.5861 18.8006 12.7109C20.0408 12.7227 21.2601 12.1894 22.0373 11.2953Z" fill="white"/>
<rect x="0.5" y="0.5" width="119" height="36" rx="6.5" stroke="#A6A6A6"/>
</svg>
