<svg xmlns="http://www.w3.org/2000/svg" width="150" height="51" fill="none" viewBox="0 0 150 51">
  <g clip-path="url(#a)">
    <path fill="#A6A6A6" d="M138.055 0H11.952c-.46 0-.914 0-1.372.003-.384.002-.765.01-1.152.016A16.64 16.64 0 0 0 6.916.24c-.83.14-1.633.406-2.383.786a8.07 8.07 0 0 0-3.506 3.51A8.275 8.275 0 0 0 .244 6.92a16.25 16.25 0 0 0-.225 2.51c-.012.384-.013.77-.019 1.154V39.56c.006.39.007.766.019 1.156.01.84.085 1.68.225 2.51.137.83.402 1.635.783 2.386.38.75.879 1.433 1.477 2.024a7.866 7.866 0 0 0 2.029 1.477 8.4 8.4 0 0 0 2.383.791c.83.136 1.67.21 2.512.222.387.008.768.013 1.152.013.458.003.912.003 1.372.003h126.103c.45 0 .908 0 1.359-.003.382 0 .773-.005 1.155-.013.84-.01 1.678-.085 2.507-.222a8.522 8.522 0 0 0 2.392-.79 7.853 7.853 0 0 0 2.027-1.478 8.027 8.027 0 0 0 1.482-2.024c.378-.751.64-1.556.776-2.387.139-.83.217-1.668.232-2.51.005-.389.005-.766.005-1.155.01-.455.01-.908.01-1.37V11.953c0-.46 0-.915-.01-1.369 0-.384 0-.77-.005-1.154a17.024 17.024 0 0 0-.232-2.51 8.323 8.323 0 0 0-.776-2.385 8.106 8.106 0 0 0-3.509-3.51 8.475 8.475 0 0 0-2.392-.786 16.344 16.344 0 0 0-2.507-.222c-.382-.006-.773-.013-1.155-.015C138.963 0 138.505 0 138.055 0Z"/>
    <path fill="#000" d="M10.586 49.044c-.382 0-.755-.005-1.134-.013a15.911 15.911 0 0 1-2.343-.205 7.374 7.374 0 0 1-2.077-.687 6.775 6.775 0 0 1-1.75-1.274 6.668 6.668 0 0 1-1.28-1.75 7.173 7.173 0 0 1-.68-2.078 15.564 15.564 0 0 1-.21-2.35c-.007-.265-.018-1.145-.018-1.145V10.585s.011-.866.019-1.12c.01-.787.079-1.572.207-2.348.12-.725.35-1.427.681-2.083a6.736 6.736 0 0 1 1.273-1.752A6.976 6.976 0 0 1 5.032 2a7.3 7.3 0 0 1 2.072-.682 15.778 15.778 0 0 1 2.351-.206l1.131-.015h128.822l1.144.016c.781.01 1.559.077 2.33.204a7.442 7.442 0 0 1 2.094.687 7.007 7.007 0 0 1 3.027 3.033c.327.651.553 1.348.671 2.067.13.782.203 1.573.218 2.366.004.355.004.736.004 1.115.01.47.01.918.01 1.369v26.234c0 .456 0 .9-.01 1.348 0 .408 0 .781-.005 1.165a16.011 16.011 0 0 1-.214 2.324 7.213 7.213 0 0 1-.677 2.093 6.882 6.882 0 0 1-1.273 1.737 6.797 6.797 0 0 1-1.754 1.282 7.361 7.361 0 0 1-2.091.689c-.775.127-1.558.195-2.343.205a49.23 49.23 0 0 1-1.125.013l-1.359.002-127.47-.002Z"/>
    <path fill="#fff" d="M31.048 25.447a6.202 6.202 0 0 1 2.954-5.205 6.35 6.35 0 0 0-5.003-2.704c-2.105-.221-4.146 1.26-5.218 1.26-1.094 0-2.745-1.238-4.524-1.202a6.662 6.662 0 0 0-5.606 3.42c-2.425 4.197-.616 10.365 1.706 13.758 1.162 1.661 2.52 3.517 4.296 3.451 1.74-.072 2.389-1.108 4.487-1.108 2.08 0 2.689 1.108 4.502 1.067 1.865-.03 3.04-1.67 4.162-3.346a13.739 13.739 0 0 0 1.903-3.877 5.994 5.994 0 0 1-3.659-5.514Zm-3.424-10.14a6.108 6.108 0 0 0 1.397-4.375 6.215 6.215 0 0 0-4.02 2.08 5.811 5.811 0 0 0-1.434 4.213 5.138 5.138 0 0 0 4.057-1.918ZM53.026 34.02h-5.933l-1.425 4.208h-2.513l5.62-15.566h2.61l5.62 15.566H54.45l-1.424-4.208Zm-5.319-1.941h4.703l-2.318-6.828h-.065l-2.32 6.828Zm21.436.474c0 3.527-1.888 5.793-4.736 5.793a3.848 3.848 0 0 1-3.57-1.986h-.055v5.621h-2.33V26.878h2.256v1.888h.043a4.025 4.025 0 0 1 3.613-2.007c2.88 0 4.78 2.277 4.78 5.794Zm-2.394 0c0-2.297-1.188-3.808-3-3.808-1.78 0-2.977 1.542-2.977 3.808 0 2.287 1.198 3.818 2.978 3.818 1.811 0 2.999-1.5 2.999-3.818Zm14.885 0c0 3.527-1.888 5.793-4.736 5.793a3.848 3.848 0 0 1-3.57-1.986h-.055v5.621h-2.33V26.878H73.2v1.888h.042a4.026 4.026 0 0 1 3.614-2.007c2.88 0 4.78 2.277 4.78 5.794Zm-2.394 0c0-2.297-1.188-3.808-3-3.808-1.78 0-2.977 1.542-2.977 3.808 0 2.287 1.198 3.818 2.978 3.818 1.811 0 2.999-1.5 2.999-3.818Zm10.65 1.337c.172 1.544 1.672 2.557 3.721 2.557 1.963 0 3.376-1.013 3.376-2.405 0-1.208-.852-1.931-2.87-2.427l-2.017-.486c-2.858-.69-4.185-2.027-4.185-4.197 0-2.685 2.34-4.53 5.664-4.53 3.29 0 5.544 1.845 5.62 4.53h-2.351c-.141-1.553-1.425-2.49-3.302-2.49s-3.16.948-3.16 2.329c0 1.1.82 1.748 2.826 2.244l1.715.42c3.194.756 4.52 2.039 4.52 4.316 0 2.912-2.32 4.736-6.009 4.736-3.452 0-5.782-1.781-5.933-4.597h2.385Zm14.585-9.696v2.686h2.158v1.844h-2.158v6.257c0 .972.432 1.425 1.381 1.425.256-.005.512-.023.766-.054v1.834c-.426.08-.86.115-1.294.107-2.297 0-3.193-.863-3.193-3.064v-6.505h-1.651V26.88h1.651v-2.686h2.34Zm3.408 8.36c0-3.57 2.103-5.814 5.383-5.814 3.29 0 5.383 2.244 5.383 5.814 0 3.58-2.082 5.815-5.383 5.815s-5.383-2.234-5.383-5.815Zm8.393 0c0-2.45-1.123-3.895-3.01-3.895-1.888 0-3.009 1.457-3.009 3.895 0 2.46 1.121 3.894 3.009 3.894 1.887 0 3.01-1.434 3.01-3.894Zm4.294-5.676h2.222v1.932h.054a2.705 2.705 0 0 1 2.729-2.05 3.6 3.6 0 0 1 .799.086v2.18a3.26 3.26 0 0 0-1.047-.142 2.345 2.345 0 0 0-2.428 2.611v6.732h-2.329V26.878Zm16.544 8.017c-.313 2.06-2.32 3.474-4.887 3.474-3.301 0-5.35-2.212-5.35-5.76 0-3.56 2.06-5.87 5.252-5.87 3.14 0 5.115 2.158 5.115 5.599v.798h-8.016v.14a2.958 2.958 0 0 0 3.053 3.215 2.567 2.567 0 0 0 2.621-1.596h2.212Zm-7.875-3.387h5.674a2.731 2.731 0 0 0-2.784-2.88 2.872 2.872 0 0 0-2.89 2.88ZM47.416 10.945a3.31 3.31 0 0 1 3.519 3.716c0 2.39-1.292 3.763-3.52 3.763h-2.701v-7.479h2.702Zm-1.54 6.422h1.41a2.35 2.35 0 0 0 2.466-2.69 2.359 2.359 0 0 0-2.466-2.675h-1.41v5.365Zm6.371-1.766a2.674 2.674 0 1 1 5.324 0 2.676 2.676 0 0 1-3.745 2.705 2.674 2.674 0 0 1-1.579-2.705Zm4.178 0c0-1.224-.55-1.939-1.514-1.939-.968 0-1.513.715-1.513 1.939 0 1.233.545 1.943 1.513 1.943.965 0 1.514-.715 1.514-1.943Zm8.223 2.824h-1.156l-1.167-4.157h-.088l-1.161 4.157H59.93l-1.556-5.645h1.13l1.011 4.307h.083l1.16-4.307h1.07l1.16 4.307h.088l1.006-4.307h1.114l-1.55 5.645Zm2.858-5.645h1.072v.896h.084a1.69 1.69 0 0 1 1.684-1.005A1.835 1.835 0 0 1 72.3 14.77v3.654h-1.114V15.05c0-.907-.394-1.359-1.218-1.359a1.295 1.295 0 0 0-1.348 1.43v3.303h-1.114V12.78Zm6.569-2.203h1.114v7.848h-1.114v-7.848Zm2.662 5.022a2.676 2.676 0 0 1 3.744-2.7 2.674 2.674 0 0 1 1.58 2.7 2.676 2.676 0 0 1-3.745 2.704 2.675 2.675 0 0 1-1.579-2.704Zm4.178 0c0-1.224-.55-1.94-1.514-1.94-.968 0-1.513.716-1.513 1.94 0 1.233.544 1.943 1.513 1.943.964 0 1.514-.715 1.514-1.943Zm2.319 1.231c0-1.016.757-1.602 2.1-1.685l1.528-.089v-.487c0-.596-.394-.933-1.155-.933-.622 0-1.053.229-1.176.628h-1.079c.114-.97 1.026-1.592 2.306-1.592 1.415 0 2.214.705 2.214 1.897v3.857h-1.073v-.793h-.088a1.899 1.899 0 0 1-1.695.886 1.707 1.707 0 0 1-1.882-1.69Zm3.629-.483v-.472l-1.379.088c-.777.052-1.13.317-1.13.815 0 .508.44.803 1.047.803a1.33 1.33 0 0 0 1.462-1.234Zm2.573-.747c0-1.784.916-2.913 2.342-2.913a1.86 1.86 0 0 1 1.731.99h.084v-3.1h1.114v7.848h-1.068v-.892h-.088a1.959 1.959 0 0 1-1.773.985c-1.435 0-2.343-1.13-2.343-2.918Zm1.15 0c0 1.197.565 1.917 1.508 1.917.94 0 1.52-.73 1.52-1.912 0-1.177-.587-1.918-1.52-1.918-.937 0-1.508.726-1.508 1.913Zm8.73.001a2.674 2.674 0 1 1 5.323 0 2.666 2.666 0 0 1-.681 2.056 2.677 2.677 0 0 1-3.064.649 2.67 2.67 0 0 1-1.455-1.605 2.673 2.673 0 0 1-.123-1.1Zm4.178 0c0-1.224-.55-1.939-1.515-1.939-.968 0-1.513.715-1.513 1.939 0 1.233.545 1.943 1.513 1.943.965 0 1.515-.715 1.515-1.943Zm2.64-2.821h1.072v.896h.084a1.688 1.688 0 0 1 1.684-1.005 1.836 1.836 0 0 1 1.954 2.099v3.654h-1.114V15.05c0-.907-.394-1.359-1.218-1.359a1.294 1.294 0 0 0-1.348 1.43v3.303h-1.114V12.78Zm11.088-1.405v1.431h1.223v.938h-1.223v2.903c0 .591.244.85.798.85.142 0 .284-.01.425-.026v.928c-.2.036-.403.055-.606.057-1.239 0-1.732-.436-1.732-1.524v-3.188h-.896v-.938h.896v-1.431h1.115Zm2.745-.798h1.104v3.11h.088a1.736 1.736 0 0 1 1.721-1.011 1.863 1.863 0 0 1 1.874 1.296c.083.261.106.537.07.808v3.645h-1.115v-3.37c0-.901-.42-1.358-1.207-1.358a1.316 1.316 0 0 0-1.348.866c-.065.18-.09.374-.073.565v3.296h-1.114v-7.847Zm11.352 6.323a2.29 2.29 0 0 1-2.446 1.632 2.567 2.567 0 0 1-2.519-1.814 2.557 2.557 0 0 1-.088-1.1 2.602 2.602 0 0 1 2.603-2.948c1.57 0 2.518 1.073 2.518 2.845v.39h-3.986v.062a1.48 1.48 0 0 0 .394 1.14 1.487 1.487 0 0 0 1.109.477 1.357 1.357 0 0 0 1.343-.685h1.072Zm-3.918-1.82h2.851a1.36 1.36 0 0 0-1.39-1.462 1.444 1.444 0 0 0-1.461 1.462Z"/>
  </g>
  <defs>
    <clipPath id="a">
      <path fill="#fff" d="M0 0h150v50.14H0z"/>
    </clipPath>
  </defs>
</svg>
