<svg width="120" height="37" viewBox="0 0 120 37" fill="none" xmlns="http://www.w3.org/2000/svg">
<rect x="0.5" y="0.5" width="119" height="36" rx="4.5" fill="black"/>
<path d="M95.053 27.75H96.7117V16.186H95.053V27.75ZM109.993 20.3518L108.091 25.3652H108.034L106.061 20.3518H104.274L107.234 27.3587L105.546 31.2567H107.276L111.837 20.3518H109.993ZM100.585 26.4366C100.043 26.4366 99.285 26.1536 99.285 25.4545C99.285 24.562 100.229 24.2198 101.043 24.2198C101.772 24.2198 102.116 24.3832 102.559 24.6065C102.43 25.6778 101.544 26.4366 100.585 26.4366V26.4366ZM100.786 20.0989C99.5854 20.0989 98.3419 20.6495 97.8272 21.8694L99.2992 22.5089C99.6139 21.8694 100.2 21.6613 100.815 21.6613C101.673 21.6613 102.545 22.1964 102.559 23.1489V23.2677C102.258 23.0892 101.615 22.8215 100.829 22.8215C99.2414 22.8215 97.6263 23.7287 97.6263 25.4248C97.6263 26.9721 98.9276 27.969 100.385 27.969C101.5 27.969 102.116 27.4483 102.501 26.838H102.559V27.7312H104.161V23.2973C104.161 21.2443 102.687 20.0989 100.786 20.0989V20.0989ZM90.5357 21.7595H88.1765V17.7958H90.5357C91.7757 17.7958 92.4797 18.8639 92.4797 19.7776C92.4797 20.6737 91.7757 21.7595 90.5357 21.7595V21.7595ZM90.493 16.186H86.5186V27.75H88.1765V23.3689H90.493C92.3312 23.3689 94.1383 21.9843 94.1383 19.7776C94.1383 17.5714 92.3312 16.186 90.493 16.186ZM68.8206 26.4387C67.6748 26.4387 66.7157 25.44 66.7157 24.0695C66.7157 22.6831 67.6748 21.6702 68.8206 21.6702C69.9519 21.6702 70.8397 22.6831 70.8397 24.0695C70.8397 25.44 69.9519 26.4387 68.8206 26.4387V26.4387ZM70.7252 20.9993H70.6678C70.2957 20.5375 69.5793 20.1202 68.6776 20.1202C66.7869 20.1202 65.0543 21.8491 65.0543 24.0695C65.0543 26.2747 66.7869 27.9885 68.6776 27.9885C69.5793 27.9885 70.2957 27.5711 70.6678 27.0945H70.7252V27.6604C70.7252 29.166 69.9519 29.9704 68.7061 29.9704C67.6897 29.9704 67.0596 29.2105 66.8015 28.5698L65.3554 29.1957C65.7703 30.2385 66.8727 31.5204 68.7061 31.5204C70.654 31.5204 72.3008 30.3281 72.3008 27.4219V20.3587H70.7252V20.9993ZM73.4467 27.75H75.1071V16.186H73.4467V27.75ZM77.5561 23.9351C77.5133 22.415 78.688 21.6403 79.5325 21.6403C80.1915 21.6403 80.7494 21.9832 80.9363 22.4746L77.5561 23.9351ZM82.7113 22.6235C82.3964 21.7447 81.437 20.1202 79.4751 20.1202C77.5272 20.1202 75.9092 21.7147 75.9092 24.0543C75.9092 26.2599 77.5133 27.9885 79.6609 27.9885C81.3935 27.9885 82.3964 26.886 82.8119 26.245L81.523 25.3507C81.0933 26.0065 80.5064 26.4387 79.6609 26.4387C78.8165 26.4387 78.2148 26.0362 77.8286 25.2464L82.8831 23.0708L82.7113 22.6235ZM42.4377 21.3273V22.9963H46.2755C46.1609 23.9351 45.8602 24.6205 45.4019 25.0975C44.8432 25.6785 43.9696 26.3195 42.4377 26.3195C40.0748 26.3195 38.2276 24.3376 38.2276 21.8787C38.2276 19.4199 40.0748 17.4377 42.4377 17.4377C43.7123 17.4377 44.6429 17.9594 45.3303 18.63L46.462 17.4525C45.5022 16.4989 44.2279 15.7687 42.4377 15.7687C39.2008 15.7687 36.48 18.5108 36.48 21.8787C36.48 25.2464 39.2008 27.9885 42.4377 27.9885C44.1845 27.9885 45.5022 27.3923 46.5332 26.2747C47.5929 25.1719 47.9224 23.6222 47.9224 22.3702C47.9224 21.9832 47.8935 21.6255 47.8363 21.3273H42.4377ZM52.2856 26.4387C51.1397 26.4387 50.1516 25.4552 50.1516 24.0543C50.1516 22.6386 51.1397 21.6702 52.2856 21.6702C53.431 21.6702 54.4192 22.6386 54.4192 24.0543C54.4192 25.4552 53.431 26.4387 52.2856 26.4387V26.4387ZM52.2856 20.1202C50.1942 20.1202 48.4904 21.7743 48.4904 24.0543C48.4904 26.3195 50.1942 27.9885 52.2856 27.9885C54.3762 27.9885 56.0804 26.3195 56.0804 24.0543C56.0804 21.7743 54.3762 20.1202 52.2856 20.1202ZM60.5637 26.4387C59.4186 26.4387 58.4301 25.4552 58.4301 24.0543C58.4301 22.6386 59.4186 21.6702 60.5637 21.6702C61.7095 21.6702 62.6973 22.6386 62.6973 24.0543C62.6973 25.4552 61.7095 26.4387 60.5637 26.4387ZM60.5637 20.1202C58.4731 20.1202 56.7693 21.7743 56.7693 24.0543C56.7693 26.3195 58.4731 27.9885 60.5637 27.9885C62.655 27.9885 64.3589 26.3195 64.3589 24.0543C64.3589 21.7743 62.655 20.1202 60.5637 20.1202Z" fill="white"/>
<path d="M39.5352 12.2418C38.7383 12.2418 38.0528 11.95 37.5002 11.375C36.9472 10.7996 36.6672 10.0791 36.6672 9.24132C36.6672 8.40355 36.9474 7.68436 37.5002 7.10767C38.0528 6.53255 38.7383 6.24085 39.5352 6.24085C39.9412 6.24085 40.3202 6.31382 40.6823 6.46577C41.0445 6.61774 41.3409 6.82871 41.5743 7.10478L41.6293 7.17L41.0076 7.81678L40.9455 7.73729C40.7907 7.53939 40.5939 7.38564 40.3444 7.27388C40.0959 7.16241 39.8237 7.11093 39.5352 7.11093C38.9739 7.11093 38.5082 7.30929 38.1193 7.71254C38.1192 7.71263 38.119 7.71262 38.1189 7.71272C37.7388 8.12411 37.5477 8.62498 37.5477 9.24132C37.5477 9.85814 37.7391 10.3591 38.1196 10.7706C38.5085 11.1737 38.9742 11.3732 39.5352 11.3732C40.0491 11.3732 40.474 11.2239 40.8081 10.9284H40.8083C41.1194 10.6533 41.306 10.2817 41.372 9.80788H39.4463V8.95515H42.2043L42.2161 9.0332C42.2387 9.1831 42.2547 9.3278 42.2547 9.46679C42.2547 10.2625 42.0216 10.9119 41.5642 11.3898C41.048 11.9593 40.369 12.2418 39.5352 12.2418L39.5352 12.2418ZM63.4835 12.2418C62.6854 12.2418 62.0079 11.9498 61.4623 11.375C61.4623 11.3749 61.4622 11.3749 61.4621 11.3748C61.4621 11.3747 61.462 11.3747 61.462 11.3746C60.9157 10.8059 60.6446 10.0853 60.6446 9.24131C60.6446 8.39735 60.9157 7.67671 61.462 7.10803C61.462 7.10796 61.462 7.10794 61.4621 7.10784L61.4623 7.10766C62.0079 6.53268 62.6854 6.24083 63.4835 6.24083C64.2801 6.24083 64.9578 6.53275 65.5033 7.11633C66.0498 7.68493 66.321 8.40419 66.321 9.2413C66.321 10.0853 66.0499 10.8059 65.5036 11.3746L65.5035 11.3748C64.9576 11.9501 64.2736 12.2418 63.4835 12.2418L63.4835 12.2418ZM43.0439 12.1175V6.36514H43.1328H46.3453V7.23522H43.9092V8.81495H46.1064V9.66768H43.9092V11.2489H46.3453V12.1175H43.0439ZM48.3658 12.1175V7.23522H46.8713V6.36514H50.7255V7.23522H50.6366H49.2311V12.1175H48.3658ZM53.1887 12.1175V6.36514H54.054V6.45764V12.1175H53.1887ZM56.2321 12.1175V7.23522H54.7377V6.36514H58.5918V7.23522H58.5029H57.0974V12.1175H56.2321ZM67.0891 12.1175V6.36514H68.0647L70.5479 10.502L70.5266 9.71664V6.36514H71.3918V12.1175H70.5356L67.933 7.77161L67.9543 8.55642V8.55768V12.1175H67.0891ZM63.4835 11.3732C64.0448 11.3732 64.503 11.1739 64.8766 10.7714L64.8771 10.7706L64.8776 10.7701C65.2565 10.3757 65.4419 9.86809 65.4419 9.24129C65.4419 8.61601 65.2564 8.10666 64.8776 7.71251L64.8771 7.71195L64.8766 7.7114C64.5031 7.3089 64.0449 7.11087 63.4835 7.11087C62.9211 7.11087 62.463 7.30856 62.0825 7.71104L62.0821 7.71141C61.7103 8.11513 61.5252 8.61618 61.5252 9.24127C61.5252 9.86788 61.7102 10.3673 62.0821 10.7711L62.0825 10.7715C62.4631 11.1741 62.9212 11.3731 63.4835 11.3731V11.3732Z" fill="white"/>
<path d="M18.4129 17.9665L8.94937 28.419C8.94973 28.4212 8.95044 28.423 8.95079 28.4251C9.24102 29.5601 10.2372 30.3958 11.4195 30.3958C11.8921 30.3958 12.3359 30.2628 12.7164 30.0294L12.7466 30.011L23.3991 23.6144L18.4129 17.9665" fill="#EA4335"/>
<path d="M27.9872 16.1866L27.9782 16.1801L23.3792 13.4058L18.198 18.2036L23.3973 23.6133L27.972 20.8666C28.774 20.416 29.3184 19.5361 29.3184 18.5215C29.3184 17.5142 28.7813 16.6387 27.9872 16.1866" fill="#FBBC04"/>
<path d="M8.94902 8.58061C8.89213 8.79891 8.86223 9.02756 8.86223 9.26501V27.735C8.86223 27.972 8.89178 28.2015 8.94938 28.419L18.7386 18.2339L8.94902 8.58061Z" fill="#4285F4"/>
<path d="M18.4827 18.4999L23.381 13.4041L12.7407 6.98437C12.3539 6.74331 11.9025 6.60419 11.4195 6.60419C10.2372 6.60419 9.23969 7.44141 8.94938 8.57777C8.94902 8.57888 8.94902 8.57962 8.94902 8.58064L18.4827 18.4999Z" fill="#34A853"/>
<rect x="0.5" y="0.5" width="119" height="36" rx="4.5" stroke="#A6A6A6"/>
</svg>
