<svg xmlns="http://www.w3.org/2000/svg" width="150" height="45" fill="none" viewBox="0 0 150 45">
  <g clip-path="url(#a)">
    <g clip-path="url(#b)">
      <path fill="#100F0D" d="M144.141 44.345H5.563C2.514 44.345.02 41.85.02 38.802V5.543C.02 2.494 2.514 0 5.563 0h138.578c3.048 0 5.543 2.494 5.543 5.543v33.259c0 3.048-2.495 5.543-5.543 5.543Z"/>
      <path fill="#A2A2A1" d="M144.141 0H5.563C2.514 0 .02 2.494.02 5.543v33.259c0 3.048 2.494 5.543 5.543 5.543h138.578c3.048 0 5.543-2.495 5.543-5.543V5.543c0-3.049-2.495-5.543-5.543-5.543Zm0 .886a4.662 4.662 0 0 1 4.656 4.657v33.259a4.662 4.662 0 0 1-4.656 4.656H5.563a4.661 4.661 0 0 1-4.656-4.656V5.543A4.661 4.661 0 0 1 5.563.886h138.578Z"/>
      <path fill="#EB3131" d="M22.987 21.534 11.184 34.061l.002.008a3.187 3.187 0 0 0 4.697 1.922l.037-.022 13.286-7.666-6.219-6.769"/>
      <path fill="#F6B60B" d="m34.929 19.4-.012-.007-5.736-3.325-6.462 5.75 6.485 6.484 5.706-3.292a3.19 3.19 0 0 0 .019-5.61"/>
      <path fill="#5778C5" d="M11.184 10.285a3.123 3.123 0 0 0-.108.82v22.137c0 .284.037.559.108.82l12.21-12.207-12.21-11.57Z"/>
      <path fill="#3BAD49" d="m23.075 22.173 6.109-6.107-13.271-7.694a3.195 3.195 0 0 0-4.729 1.91v.003l11.89 11.888Z"/>
    </g>
    <path fill="#fff" d="M52.681 11.467c0 .929-.275 1.668-.826 2.22-.626.656-1.441.984-2.444.984-.96 0-1.776-.332-2.447-.998-.673-.666-1.008-1.491-1.008-2.476 0-.985.335-1.81 1.008-2.476.67-.666 1.487-1 2.447-1 .477 0 .933.094 1.366.28.433.186.78.433 1.04.743l-.585.585c-.44-.526-1.046-.789-1.82-.789-.7 0-1.306.246-1.817.738-.511.493-.767 1.132-.767 1.919 0 .786.256 1.426.767 1.918a2.53 2.53 0 0 0 1.816.739c.743 0 1.362-.248 1.858-.743.322-.323.508-.771.558-1.347h-2.416v-.8h3.224c.03.175.046.341.046.503"/>
    <path fill="#fff" d="M52.681 11.467h-.11c-.002.908-.267 1.613-.794 2.142l-.002.001c-.606.634-1.384.95-2.364.951-.934-.001-1.716-.32-2.37-.966-.651-.648-.973-1.438-.974-2.398 0-.96.323-1.75.975-2.397.653-.646 1.435-.965 2.37-.967.461 0 .901.09 1.321.27.42.181.752.418 1 .713l.084-.072-.078-.078-.585.586.078.077.086-.07c-.461-.553-1.108-.831-1.907-.83a2.64 2.64 0 0 0-1.893.77c-.534.513-.801 1.188-.8 1.998-.002.81.266 1.486.8 1.998a2.64 2.64 0 0 0 1.893.77c.768.001 1.422-.259 1.937-.775.343-.345.538-.822.59-1.416l.01-.12h-2.426v-.578h3.113v-.11l-.11.019c.03.168.045.328.045.482h.222a2.93 2.93 0 0 0-.048-.522l-.017-.09h-3.426v1.02h2.526v-.11l-.11-.01c-.05.557-.227.978-.526 1.278-.477.475-1.061.709-1.78.71a2.415 2.415 0 0 1-1.74-.707c-.488-.472-.73-1.076-.732-1.839.001-.763.244-1.366.733-1.838a2.415 2.415 0 0 1 1.74-.708c.749.002 1.315.25 1.736.75l.077.093.67-.671.072-.072-.065-.078A2.848 2.848 0 0 0 50.82 7.9a3.542 3.542 0 0 0-1.41-.288c-.985-.001-1.836.345-2.526 1.03-.692.685-1.041 1.545-1.04 2.555-.001 1.01.348 1.87 1.04 2.555.69.686 1.54 1.032 2.526 1.03 1.027.002 1.878-.34 2.524-1.018l-.08-.076.079.078c.574-.574.859-1.35.858-2.299h-.11Zm5.11-2.779h-3.03v2.11h2.733v.799h-2.732v2.109h3.03v.817h-3.884V7.87h3.883v.817Z"/>
    <path fill="#fff" d="M57.791 8.688v-.11h-3.14v2.33h2.732v.578H54.65v2.33h3.03v.596h-3.662v-6.43h3.661v.706h.111v-.11.11h.111v-.927h-4.105v6.873h4.105v-1.039h-3.03v-1.888h2.733v-1.02h-2.732V8.798h3.029v-.11h-.11m3.605 5.835h-.856V8.688h-1.858v-.817h4.571v.817h-1.857v5.835Z"/>
    <path fill="#fff" d="M61.396 14.523v-.11h-.745V8.576h-1.858v-.595h4.35v.595h-1.858v5.946h.11v-.11.11h.111V8.799h1.858V7.761h-4.792v1.038h1.857v5.835h1.077v-.111h-.11m5.164 0V7.87h.855v6.652h-.854Z"/>
    <path fill="#fff" d="M66.56 14.523h.112V7.982h.632v6.43h-.743v.11h.11-.11v.112h.965V7.76H66.45v6.874h.11v-.111Zm4.647 0h-.856V8.688h-1.857v-.817h4.57v.817h-1.857v5.835Z"/>
    <path fill="#fff" d="M71.207 14.523v-.11h-.745V8.576h-1.858v-.595h4.35v.595h-1.858v5.946h.11v-.11.11h.111V8.799h1.858V7.761h-4.792v1.038h1.857v5.835h1.077v-.111h-.11m6.264-1.417a2.442 2.442 0 0 0 1.808.748 2.44 2.44 0 0 0 1.806-.748c.493-.498.74-1.135.74-1.91 0-.773-.247-1.41-.74-1.909a2.44 2.44 0 0 0-1.806-.747c-.713 0-1.315.249-1.808.747-.491.499-.738 1.136-.738 1.91s.247 1.41.738 1.91Zm4.247.557c-.654.673-1.468 1.008-2.44 1.008s-1.785-.335-2.438-1.008c-.654-.671-.98-1.494-.98-2.466 0-.972.326-1.795.98-2.466.653-.673 1.466-1.01 2.439-1.01.966 0 1.777.339 2.434 1.014.656.675.985 1.496.985 2.462 0 .972-.328 1.795-.98 2.466Z"/>
    <path fill="#fff" d="m77.472 13.107-.08.078a2.558 2.558 0 0 0 1.887.78 2.553 2.553 0 0 0 1.885-.78c.514-.52.773-1.19.772-1.988 0-.797-.258-1.468-.772-1.987a2.553 2.553 0 0 0-1.885-.78 2.554 2.554 0 0 0-1.886.78c-.513.519-.772 1.19-.77 1.987-.002.798.257 1.469.77 1.988l.079-.078.078-.078c-.47-.479-.705-1.08-.706-1.832 0-.75.236-1.353.706-1.831.475-.479 1.042-.713 1.729-.715.686.002 1.254.236 1.728.715.47.478.706 1.08.707 1.831-.001.751-.236 1.353-.707 1.832-.474.478-1.042.713-1.728.714a2.333 2.333 0 0 1-1.729-.714l-.078.078Zm4.246.557-.08-.077c-.635.65-1.413.973-2.36.974-.946-.001-1.724-.323-2.358-.974l-.003-.004.003.004c-.635-.654-.948-1.442-.949-2.39.001-.947.314-1.735.949-2.389.634-.651 1.412-.973 2.359-.975.94.002 1.716.325 2.355.98.637.656.952 1.443.953 2.384-.001.948-.315 1.736-.949 2.39l.08.077.08.077c.671-.69 1.011-1.547 1.01-2.544.001-.99-.34-1.845-1.015-2.539-.675-.696-1.522-1.048-2.514-1.046-.998-.002-1.847.349-2.518 1.042-.674.69-1.012 1.546-1.011 2.543-.001.997.337 1.854 1.01 2.544l.004.003-.003-.003c.671.693 1.52 1.043 2.518 1.042.997 0 1.846-.349 2.518-1.042l-.08-.077m2.18.859V7.87h1.04l3.233 5.175h.037l-.037-1.282V7.87h.856v6.652h-.892L84.75 9.097h-.037l.037 1.283v4.143h-.854Z"/>
    <path fill="#fff" d="M83.897 14.523h.111V7.982h.868l3.233 5.175h.211l-.04-1.395v-3.78h.634v6.43h-.72l-3.382-5.425H84.6l.04 1.395v4.03h-.744v.11h.111-.11v.112h.964v-4.256l-.037-1.284-.11.003v.111h.036v-.11l-.094.058 3.415 5.478h1.064V7.76H88.06v4.005l.036 1.284.111-.003v-.111h-.037v.11l.094-.058L85 7.76h-1.213v6.874h.11v-.111Zm34.768 18.847h2.069V19.51h-2.069v13.86Zm18.633-8.867-2.371 6.009h-.071l-2.461-6.009h-2.229l3.691 8.398-2.104 4.672h2.158l5.688-13.07h-2.301Zm-11.732 7.293c-.678 0-1.623-.339-1.623-1.177 0-1.07 1.178-1.48 2.193-1.48.911 0 1.337.196 1.891.464a2.509 2.509 0 0 1-2.461 2.193Zm.25-7.596c-1.498 0-3.049.66-3.691 2.122l1.836.767c.393-.767 1.123-1.017 1.89-1.017 1.07 0 2.158.642 2.176 1.784v.142c-.375-.214-1.177-.535-2.158-.535-1.979 0-3.994 1.087-3.994 3.12 0 1.855 1.623 3.05 3.441 3.05 1.391 0 2.157-.625 2.64-1.355h.071v1.07h1.996v-5.315c0-2.46-1.836-3.833-4.207-3.833Zm-12.785 1.99h-2.942v-4.75h2.942c1.547 0 2.425 1.28 2.425 2.375 0 1.074-.878 2.375-2.425 2.375Zm-.053-6.68h-4.957v13.86h2.068v-5.25h2.889c2.292 0 4.546-1.66 4.546-4.305 0-2.644-2.254-4.304-4.546-4.304Zm-27.03 12.288c-1.43 0-2.626-1.196-2.626-2.84 0-1.66 1.197-2.875 2.626-2.875 1.41 0 2.518 1.215 2.518 2.876 0 1.643-1.107 2.84-2.518 2.84Zm2.375-6.519h-.071c-.465-.553-1.358-1.053-2.483-1.053-2.358 0-4.519 2.071-4.519 4.733 0 2.643 2.161 4.697 4.519 4.697 1.125 0 2.018-.5 2.483-1.072h.071v.68c0 1.803-.964 2.768-2.518 2.768-1.268 0-2.054-.911-2.376-1.68l-1.803.75c.517 1.251 1.893 2.787 4.179 2.787 2.429 0 4.483-1.429 4.483-4.912v-8.466h-1.965v.768Zm3.394 8.091h2.072V19.51h-2.072v13.86Zm5.126-4.572c-.054-1.822 1.41-2.75 2.465-2.75.822 0 1.518.41 1.75 1l-4.215 1.75Zm6.43-1.572c-.393-1.054-1.59-3-4.037-3-2.43 0-4.447 1.91-4.447 4.715 0 2.643 2 4.715 4.68 4.715 2.161 0 3.411-1.322 3.929-2.09l-1.608-1.072c-.535.787-1.268 1.305-2.322 1.305-1.053 0-1.803-.483-2.286-1.43l6.305-2.607-.214-.536Zm-50.231-1.554v2h4.786c-.143 1.126-.518 1.947-1.09 2.519-.696.697-1.785 1.465-3.696 1.465-2.947 0-5.251-2.376-5.251-5.323 0-2.947 2.304-5.323 5.25-5.323 1.59 0 2.751.626 3.609 1.43l1.41-1.411c-1.196-1.144-2.786-2.019-5.018-2.019-4.037 0-7.43 3.287-7.43 7.323 0 4.037 3.393 7.323 7.43 7.323 2.179 0 3.822-.714 5.108-2.054 1.322-1.322 1.733-3.18 1.733-4.68 0-.464-.036-.892-.108-1.25h-6.733ZM65.324 31.8c-1.429 0-2.661-1.18-2.661-2.858 0-1.697 1.232-2.858 2.661-2.858s2.662 1.16 2.662 2.858c0 1.679-1.233 2.858-2.662 2.858Zm0-7.573c-2.607 0-4.733 1.982-4.733 4.715 0 2.715 2.126 4.715 4.733 4.715 2.608 0 4.733-2 4.733-4.715 0-2.733-2.125-4.715-4.733-4.715ZM75.65 31.8c-1.43 0-2.662-1.18-2.662-2.858 0-1.697 1.233-2.858 2.662-2.858 1.428 0 2.66 1.16 2.66 2.858 0 1.679-1.232 2.858-2.66 2.858Zm0-7.573c-2.608 0-4.733 1.982-4.733 4.715 0 2.715 2.125 4.715 4.733 4.715 2.607 0 4.732-2 4.732-4.715 0-2.733-2.125-4.715-4.733-4.715Z"/>
  </g>
  <defs>
    <clipPath id="a">
      <path fill="#fff" d="M0 0h150v44.568H0z"/>
    </clipPath>
    <clipPath id="b">
      <path fill="#fff" d="M0 0h150v44.568H0z" transform="translate(.02)"/>
    </clipPath>
  </defs>
</svg>
